<svg xmlns="http://www.w3.org/2000/svg" viewBox="0 0 201.76 202.04"><defs><style>.a{fill:none;}.b{fill:#fff;}.c{fill:#29b0c2;}.d{fill:#36498a;}.e{fill:#a7d29f;}.f{fill:#dde9fe;}.g{fill:#f0a250;}.h{fill:#e8f1fe;}.i{fill:#82b277;}.j{fill:#e6f0fd;}.k{fill:#a9d2a1;}.l{fill:#101010;}.m{fill:#f2ac76;}.n{fill:#dfe9fd;}.o{fill:#2b3b62;}.p{fill:#2b3b65;}.q{fill:#f0ad76;}.r{fill:#eea55a;}.s{fill:#87b480;}.t{fill:#f1a153;}.u{fill:#394a83;}.v{fill:#ba8545;}.w{fill:#89b381;}.x{fill:#b98547;}.y{fill:#9bbe99;}.z{fill:#4d5972;}.aa{fill:#f6c795;}.ab{fill:#2ab0c2;}.ac{fill:#466ba3;}.ad{fill:#d07e51;}.ae{fill:#e9f3fe;}.af{fill:#a7d19e;}.ag{fill:#f0a04f;}.ah{fill:#dbeaf1;}.ai{fill:#c76e2a;}.aj{fill:#ab653c;}.ak{fill:#deebfc;}.al{fill:#ecb077;}.am{fill:#dbeaf3;}.an{fill:#a66743;}.ao{fill:#d8ece8;}.ap{fill:#c97d4b;}.aq{fill:#d6ebe3;}.ar{fill:#a5d3a5;}.as{fill:#b1673e;}.at{fill:#d4ecec;}.au{fill:#a7d3a1;}.av{fill:#d5fafe;}.aw{fill:#a86f4d;}.ax{fill:#ba875d;}.ay{fill:#0c151d;}.az{fill:#e3ded6;}.ba{fill:#d4eae2;}.bb{fill:#a2dbc8;}.bc{fill:#a9795b;}.bd{fill:#393a38;}.be{fill:#ced8e5;}.bf{fill:#85b27d;}.bg{fill:#8bb581;}.bh{fill:#87b080;}.bi{fill:#95bf8c;}.bj{fill:#feb870;}.bk{fill:#9cbd88;}.bl{fill:#af752f;}.bm{fill:#ba8348;}.bn{fill:#efad7b;}.bo{fill:#ccd7ec;}.bp{fill:#e2ecf8;}.bq{fill:#eab48e;}.br{fill:#d9e1f4;}.bs{fill:#d7e0f4;}.bt{fill:#ccd6ea;}.bu{fill:#a4c29e;}.bv{fill:#879adb;}.bw{fill:#7a96f1;}.bx{fill:#f0edf6;}.by{fill:#d5e0f4;}.bz{fill:#8791a1;}.ca{fill:#a6a4b1;}.cb{fill:#dde5f6;}.cc{fill:#8b95ad;}.cd{fill:#8cb884;}.ce{fill:#f8fbfa;}.cf{fill:#8ab37d;}.cg{fill:#9dbe97;}.ch{fill:#df9656;}.ci{fill:#def5fe;}.cj{fill:#4a4f5d;}.ck{fill:#d8e4f0;}.cl{fill:#514e58;}.cm{fill:#a48473;}.cn{fill:#25b0c3;}.co{fill:#4a6d94;}.cp{fill:#4869a5;}.cq{fill:#3d6ea0;}.cr{fill:#406ea2;}.cs{fill:#ad663d;}.ct{fill:#d17f47;}.cu{fill:#ab6b48;}.cv{fill:#ae6430;}.cw{fill:#b58563;}.cx{fill:#f7fbfa;}.cy{fill:#d3671e;}.cz{fill:#ce641b;}</style></defs><rect class="a" width="201.76" height="202.04"/><path class="b" d="M70.5,178.46c-.63-.45-.38-1.11-.38-1.69,0-3-.05-6,0-9a2,2,0,0,0-1.3-2.12,73.93,73.93,0,0,1-14.48-9.07,2.8,2.8,0,0,0-1.86-.56c.19-.88,1.7-1.08,1.18-2.31a1,1,0,0,1,.54-.84,5.22,5.22,0,0,0,4.83-3c.2-.42.51-.76.72-1.16-.17-.54-.66-.21-1-.37-1.14-.35-2.6,0-3.24-1.43a1.24,1.24,0,0,1,.62-1.29c1.11-.52,2.35-.12,3.49-.46,2.29-.63,2.64-1.07,2.63-3.24s-.79-3.3-2.68-3.8c-1.65-.43-3.26-.53-4.5,1a8,8,0,0,0-2.31,2.55c-.42.65-.91,1.59-1.94.64a1.2,1.2,0,0,1,0-.5c.18-.44.46-.84.61-1.3a4,4,0,0,1,.2-.42,3.66,3.66,0,0,0,.52-1.22,2.32,2.32,0,0,0,.15-.63c-1.23-.95-2.08.29-3.1.53-1.72.56-3.49,1-4.82,2.37a11.81,11.81,0,0,1-1.17.83l-.37.28a3.51,3.51,0,0,1-.4.27c-.5.25-.93.68-1.56.54-.9-.35-1.13-1.94-2.53-1.36,0-2.46-1.61-4.19-2.75-6.14.31-.82-.34-1.35-.65-1.94A75.82,75.82,0,0,1,26.9,109.1a74.34,74.34,0,0,1,5.41-40.68,74.55,74.55,0,0,1,48.32-42.2,74.13,74.13,0,0,1,50,3.29,76.15,76.15,0,0,1,18.73,11.6,74.76,74.76,0,0,1,16.16,19.18c.31.51.44,1.18,1.21,1.23a.88.88,0,0,1-.37.89c-.31.31-.92.34-.93.94a3,3,0,0,0,.23.38c.2.23.44.44.65.67a2.71,2.71,0,0,1,.76,1.37,41.33,41.33,0,0,0,.44,4.13c.41,1.95,1.08,3.56,3.29,4A2.31,2.31,0,0,1,171,75.8a10.46,10.46,0,0,1-3.32,3c-3.34,1.45-4.86,4.26-6.34,7.2-1.27,2.53-2.33,5.15-3.58,7.69-.78,2.43-2.1,3.92-5,4s-5.83,1-8.81.39a7.83,7.83,0,0,0-3,.37c-1,0-1.77-.73-2.69-1-.73-.19-1.59-.28-1.85.58s.64,1,1.23,1.23a26.67,26.67,0,0,1,2.91.94,3,3,0,0,0,1.18.48c4.39,1,8.37,3.22,12.89,3.81a3.58,3.58,0,0,0,3.56-1.16,5.38,5.38,0,0,1,1.59-1.49c.88-.21,1.05-1.48,2.11-1.41a1.54,1.54,0,0,1,.48,1.11c-.05,3.85.27,7.71-.17,11.55a4.29,4.29,0,0,0-.54,2.46c0,3.53,0,7.07,0,10.61,0,2.25-.36,2.63-2.51,2.63q-17.31,0-34.62,0c-2.12,0-2.86-1-2.26-3.07a58.92,58.92,0,0,0,1.38-5.84,3,3,0,0,1,.85-1.58c1.75-1.82,1.43-4-1-4.24-3.63-.31-4.19-2.76-5-5.33a4.77,4.77,0,0,0-.71-1.67,1.91,1.91,0,0,1,.06-2.82,3.57,3.57,0,0,0,.56-3.55,2,2,0,0,0-.81-.14,8.31,8.31,0,0,1-4.82-1.32c-.52-.3-.4-1-.86-1.37-.5-.17-1.06.06-1.54-.23-1.53-.5-1.68.77-1.93,1.64a22.09,22.09,0,0,0-.43,2.84,4.14,4.14,0,0,0,.82,2.72,2.59,2.59,0,0,1,.17,2.89,7.23,7.23,0,0,1-1.12,1.16,2.42,2.42,0,0,1-.42.29c-1.33.66-2.67,1.32-4,2a4.78,4.78,0,0,1-.45.23c-.79.26-1.39,1-2.26,1a.86.86,0,0,1-.81-.52c-.58-1.25-1.52-.23-1.65.05-.6,1.31-2.07,2-2.4,3.43-.74.73-1.69.49-2.57.55-1.18.1-2.4-.22-3.55.29,0,.83.85.86,1.08,1.39a8.75,8.75,0,0,1,.8,3.9c-.53,2,.66,3.67.75,5.56.07,1.32-.27,1.66-1.38,1.69-1.83.06-3.67,0-5.5,0-5.62,0-11.24-.05-16.85,0-1.59,2-1.4,2.72.85,3.47a1.88,1.88,0,0,1,1.17.81,3.14,3.14,0,0,1,.25,1.12,28.18,28.18,0,0,0,.13,3.56c.11.41.39.75.49,1.16a68.88,68.88,0,0,1,0,11.4,9.11,9.11,0,0,0-.53,3.59q0,10.89,0,21.77A3.91,3.91,0,0,1,70.5,178.46Z"/><path class="c" d="M70.5,178.46q0-13.29-.09-26.57c0-.72.08-1.31.83-1.61a3.12,3.12,0,0,1,2.59-.6c6.65.31,13.3-.19,19.94,0,22.47.61,44.94.26,67.4.37a7.61,7.61,0,0,1,3.25.32,2.46,2.46,0,0,1,.91,2.1c.27,3,.59,6.07.65,9.1.09,4.16.78,8.24,1,12.38-.18,1.66-1.38,2.43-2.73,3s-2.63.84-3.87,1.45c-1,0-1.95.05-2.93.05Z"/><path class="d" d="M166.71,174.44a51.15,51.15,0,0,1-1.1-8.8c-.41-4.59-.56-9.19-.83-13.79a8.85,8.85,0,0,0-.27-1.24c-1.09-1.57-.49-3.41-.76-5.11a21.24,21.24,0,0,1-.18-6.27,1.45,1.45,0,0,1,.55-.37,56.29,56.29,0,0,1,6.09-.16h.69c3.9-.09,7.81,0,11.71,0a3,3,0,0,1,1.92.45c.18,1-.62.65-1,.65-5.87,0-11.75,0-17.62,0,6,.07,12-.09,18.06.09.49,0,1,0,1.31.47,3.12,3.67,4.07,8.22,5.14,12.7,1.19,5,1.87,10.13,2.58,15.24A17.15,17.15,0,0,1,193,170c-1.15.74-2.23,1.66-3.74,1.5-2.59-3.32-4.31-7.16-6.43-10.76-2.5-4.23-4.79-8.58-7.08-13.05-.24,10.32-2.76,20.21-5,30.13C170.49,175.42,168.5,175.05,166.71,174.44Z"/><path class="e" d="M35.64,135.55c2.06,1.57,3.29,3.54,3,6.23a1.78,1.78,0,0,1-.28,2.05c-1,1.57-2.08,3.18-4.13,3.62a1,1,0,0,1-.61-.35c-2.35-3.82-6.21-5.79-9.83-8.06-1.4-.8-2.88-1.45-4.29-2.23a16.5,16.5,0,0,1-2-.85,11.25,11.25,0,0,0,1.79.8q2.22,1.08,4.4,2.25a31.34,31.34,0,0,1,7.94,6A5.22,5.22,0,0,1,33,150.55a3.39,3.39,0,0,1-.92,1.32,15,15,0,0,1-3.33,1.46,10.49,10.49,0,0,0-1.57.26,20.25,20.25,0,0,1-7.24-.35c-1-.29-2.09-.68-1.61-2.15a5.33,5.33,0,0,1,1.38-1.42,9.32,9.32,0,0,1,2.75-1.59c1.56-.69,3.33-.34,5.19-1.07-2.7-.86-4.54.47-6.44,1.56a12.47,12.47,0,0,1-1.78,1.09,25.56,25.56,0,0,1-2.9.23,1.12,1.12,0,0,1-.7-.39,14,14,0,0,1-5.47-7.2,14.18,14.18,0,0,0,6.34-.82c.53-.15,1.18-.43,1.14-1s-.77-.44-1.22-.58a15,15,0,0,0-4-.31c-4.22-.13-6.08-2.57-5.1-6.75.61-2.56,2.2-3.84,5.11-4.2,2.61-.33,4.73.09,6.09,2.75a19.43,19.43,0,0,0,3.95,5c.29.28.62.79,1.06.46s.17-.8,0-1.19a41.05,41.05,0,0,0-3.05-6.12c1.38-.49,2.52.06,3.62.41,1.85.59,3.66,1.34,5.48,2a2,2,0,0,1,1.45,2.2,22.91,22.91,0,0,0,.29,6.56c.12.45.08,1.1.78,1,.48-.07.49-.61.58-1,.35-1.84-.22-3.63-.35-5.44,0-.47-.31-.92,0-1.41C33.9,133.8,34.63,134.94,35.64,135.55Z"/><path class="f" d="M184.23,103.29c.65,7,1.13,14,1.53,21,.22,3.87.68,7.73.69,11.61a10.71,10.71,0,0,1,.14,3.25c-2.11-.7-5.38-4.9-7.06-9-1.48-3.59-3.6-6.93-4.22-10.85-.34-2.25.57-4.42.39-6.69-.11-1.49-.18-2.79-1.85-3.34-.22-.08.05,0-.16-.09-2.16-1.45-.84-3.94-1.65-5.84-.37-.89,1.13-1.56,2-2a2.25,2.25,0,0,1,2.44,0c1.2.92,2.51.77,3.83.76A5.23,5.23,0,0,1,184.23,103.29Z"/><path class="g" d="M48.1,178.41l-27.1.05c-.34,0-.8.16-1-.22s.21-.78.5-1.07a2.42,2.42,0,0,1,1.89-.48c1.86,0,3.72,0,5.63-.15A17.55,17.55,0,0,1,21.6,170a20.93,20.93,0,0,1-1.68-6.13,48.25,48.25,0,0,1,9.68-.57h5.56c.86,0,1.73,0,2.59,0s1.47,0,2.21,0a2.61,2.61,0,0,1,.61.16,30.71,30.71,0,0,0,4.29.13.41.41,0,0,1,.41.31c-1.6.73-1.78,2.21-2.2,3.71a14.44,14.44,0,0,1-7,8.83,4.52,4.52,0,0,0,2.31-.18,2.67,2.67,0,0,1,.56-.06c2.26,1,4.64.46,7,.6C46.93,176.89,48.18,176.76,48.1,178.41Z"/><path class="h" d="M183.14,76.52a4.32,4.32,0,0,1,4,2.93,55.51,55.51,0,0,1,4.06,15.82,13.28,13.28,0,0,1,.12,4.32c-.43,2-1.63,2.5-3.38,2.62-1.25.08-2.55-.4-3.74.35a27.19,27.19,0,0,0-5.77-.38c-1.27,0-2.11-1-3.22-1.33a9.16,9.16,0,0,0-.67-2.81c.86-1.12,2.29-.86,3.41-1.37.53-.24,1.2-.16,1.77-.35.89-.3,2.33-.11,2.46-1.18a5.32,5.32,0,0,0-1.25-4c-.53-.64-1.07-.18-1.64,0-.85.2-1.71,1.22-2.59.06.41-2,1.78-3.68,2.1-5.73,2.31-.49,2.89-3.22,5-3.91.54-.17.54-.19,1.25-1.18-1.18-.2-2.73.47-3.33-1.13C181.33,77.91,182.08,77.09,183.14,76.52Z"/><path class="h" d="M175.8,119.43c.75,4.29,3,8,4.79,11.86a20.56,20.56,0,0,0,5.86,7.67v-3c.81,2.28.55,3.18-1.15,4.12-.47.08-.53-.39-.79-.59l-11.85-.12c-.67,0-1.33-.05-2-.08a3.38,3.38,0,0,1-.4-2.65,3.19,3.19,0,0,1,.12-.6,22.67,22.67,0,0,0,.14-4.28c0-3.37.07-6.74,0-10.12,0-1.45,0-2.9,0-4.36,0-1.24,0-2.48,0-3.73a79.17,79.17,0,0,1-.35-10.67,5,5,0,0,1,.27-2.32.79.79,0,0,1,.87-.35,1.46,1.46,0,0,1,.9,1.64,11.82,11.82,0,0,0,.35,3.71A103.24,103.24,0,0,0,175.8,119.43Z"/><path class="i" d="M15.82,149.5h.7c.75.5,1.82.54,2.2,1.56-.72,1.3.44,1.46,1.14,1.68,2.51.79,5.11.43,7.68.43a1,1,0,0,0,1.09,0,9.68,9.68,0,0,1,3.32-1.5c1.23.72.86,1.83.46,2.73a7.41,7.41,0,0,0-.66,4.53,1.46,1.46,0,0,1-.61.57c-2.06,2.24-4.46,3.82-7.63,3.89a1.21,1.21,0,0,1-.76-.32c-.83-.63-.05-1.22.05-1.83.43-1.69,2-2.09,3.42-3.08-1.83.37-2.49,2-3.81,2.68a4.75,4.75,0,0,1-6.55-1.22c-.46-.58-.32-.77.32-1a6.91,6.91,0,0,0,3.4-2.39c-1.34-.43-2.34.19-3.36.5-2.55.77-3.52.4-4.35-1.72a3.41,3.41,0,0,1,1.9-4.81A20,20,0,0,1,15.82,149.5Z"/><path class="j" d="M183.14,76.52a.55.55,0,0,1,0,.18c-.27.93-2,1.66-.71,2.76,1,.85,2.28.42,3.9-.45-.77,1.49-.62,3-2.46,3-1,0-1.5.19-1.47,1.31a1.43,1.43,0,0,1-1.74,1.61c-1-.12-1.62.46-1.64,1.18,0,2-1.46,3.37-2.1,5.08a16.23,16.23,0,0,1-4.11,6.48,3.12,3.12,0,0,1-2.19.16,4.31,4.31,0,0,1-.06-2c-.16.43.05,1-.21,1.37-.72.59-1,.17-1-.51.11-1.62-.15-3.31.76-4.8a2.56,2.56,0,0,0,.22-2.51c-.63-2.08-.74-4.1.79-5.9a9.58,9.58,0,0,0,2.08-3.6,5.61,5.61,0,0,1,.47-.87c.17-.27.33-.56.48-.85.75-1.17,1.16-2.58,2.36-3.45a10.78,10.78,0,0,1,3.06,1.15,2.1,2.1,0,0,1,.15,2.12c-.22.52-.63,1-.18,1.6.16.22.23.56.64.53-.17-.31-.62-.29-.71-.65-.19-.54.24-.87.44-1.28s.66-.89.11-1.41a1,1,0,0,1,.09-.9A7.06,7.06,0,0,1,183.14,76.52Z"/><path class="k" d="M55.77,147c.92,1,2.3.41,3.33,1,.23.48,1.28-.19,1.15.8l-.78,1.05a2.4,2.4,0,0,0-1.69,1.27A3.15,3.15,0,0,1,54.2,153a2,2,0,0,1-1.83-.47,6.52,6.52,0,0,0-3.9-1.08c-.23,0,0-.14-.17,0s-.22.08,0,.14a3.87,3.87,0,0,0,.84.06c1.89.21,3.65.67,4.86,2.29,1.17,1.86-.76,1.59-1.47,2.15a14.39,14.39,0,0,1-9.13-1.75,5.28,5.28,0,0,1,1.53-5c.65-.73,1.44-1.3,2.1-2a2.61,2.61,0,0,1,.43-.31c2.27-1.07,4.22-2.7,6.55-3.66a2.64,2.64,0,0,1,2.58.11c.58.43,1.14,0,1.71-.11s1.48-.31,2,.34-.2,1.2-.39,1.79c-1.18.66-2.48.17-3.71.38C55.71,146.12,55.2,146.37,55.77,147Z"/><path class="l" d="M166.21,62.06l.48-.54c1.34-.36,2.48-1.21,3.85-1.54a5.38,5.38,0,0,1,6.58,6.38,8.15,8.15,0,0,1-2,4c-1.08.41-1.53-.42-2.05-1.06a9.93,9.93,0,0,1-1-1.89,2.63,2.63,0,0,0-3.24-1.63,2.25,2.25,0,0,1-2.09-.2l-.91-1.09c.19-.57-.34-.57-.62-.78h0C164.86,62.75,166.09,62.76,166.21,62.06Z"/><path class="m" d="M166.66,65.57a7.81,7.81,0,0,0,1.09,0c3.52-.51,3.52-.51,5.22,2.8.47.92.89,1.9,2.12,2,0,.2,0,.39,0,.58a.65.65,0,0,1,.07.49A3.87,3.87,0,0,1,174,72.81c-1.05.6-2,1.5-3.37,1.13-2,.25-2.91-.81-3.34-2.67A16.44,16.44,0,0,1,166.66,65.57Z"/><path class="n" d="M175.8,119.43a27.42,27.42,0,0,1-2.93-9.5c-.51-3.15-1-6.3-1.47-9.45,1.12-.79,2.38.06,3.53-.32a.7.7,0,0,1,.51.22,4.37,4.37,0,0,0,3.24,1.44c1.27,0,2.55.05,3.82,0a2,2,0,0,1,1.73.75v.73a16.06,16.06,0,0,0-6.27-.75,1.68,1.68,0,0,1-.86-.2c-1.92-1.13-2.94-1-4.4.4-.16.17-.42.52-.37.59,1.08,1.5.23,3.37.95,4.9a1.46,1.46,0,0,0,1.13.87c1.55.14,1.87,1.13,1.76,2.44-.18,2,.43,4.12-.52,6.13C175.44,118.13,175.74,118.83,175.8,119.43Z"/><path class="o" d="M189.29,171.53c1.26-.46,2.3-1.48,3.74-1.5,1.91,2,1.92,2.28.26,4.4a6.7,6.7,0,0,0-.89,1.37c-1,2.5-2.69,3.33-5.36,2.67-.81-.2-.7-.83-.27-1C189.9,176.43,189.19,173.82,189.29,171.53Z"/><path class="p" d="M166.71,174.44c1.21-.4,2.25.55,3.45.46.51,0,.48.58.5,1,0,.65.05,1.31.08,2-.12.83-.78.61-1.28.61-3,0-6,0-9.07-.05.36-1,1.35-1.11,2.19-1.34A6.52,6.52,0,0,0,166.71,174.44Z"/><path class="q" d="M175,71.43l.06-.49a14.7,14.7,0,0,0,1.41,3.74c-.67,1.23-1.35,2.45-2,3.67a4.38,4.38,0,0,1-3.29.38,1.4,1.4,0,0,1-.85-1.81c1.22-1.36,2.86-2.34,3.67-4.08A14.12,14.12,0,0,0,175,71.43Z"/><path class="r" d="M48.1,178.41c-.3-1.32-1.35-1.36-2.4-1.41-2.38-.11-4.79.37-7.15-.37-.12-.46.21-.68.5-.87a16.59,16.59,0,0,0,6.53-7.87.66.66,0,0,1,.69-.49c.67.61.46,1.49.67,2.24-1.13,3.15-3.7,5-6.78,7h6.29a2,2,0,0,1,2.06,1.2C48.66,178.24,48.53,178.46,48.1,178.41Z"/><path class="s" d="M42.21,155.5l.42-2.34c.12-1.66.06-3.39,1.64-4.53,1-.49,1.53-2.14,3.11-1.34-.15.27-.23.63-.45.79a7.86,7.86,0,0,0-3.57,6.24C43,154.76,42.89,155.39,42.21,155.5Z"/><path class="t" d="M46.94,169.64a2.57,2.57,0,0,1-.67-2.18c-.53-1.05.45-2.6-1.1-3.31v-.34a5.63,5.63,0,0,1,3.35.05,10.63,10.63,0,0,1-.75,3.61c-.52.53-.47,1.28-.73,1.91A.28.28,0,0,1,46.94,169.64Z"/><path class="u" d="M184.51,139.45c.55-.18.44.5.79.59,0,.1,0,.19-.06.29-3-.67-6.07-.31-9.11-.36-3.65-.05-7.3,0-10.95-.38,2.36,0,4.72,0,7.08,0C176.34,139.52,180.43,139.78,184.51,139.45Z"/><path class="v" d="M22.75,163.09h.8c2.88,0,5.76-.38,8.65-.22a6,6,0,0,1,2.49.31.52.52,0,0,1,.28.58l-15,.09C20.64,162.76,22,164.05,22.75,163.09Z"/><path class="w" d="M40,163.3a8.28,8.28,0,0,1,.45-4.24c.69,0,.5.37.35.75v3.56c0,.27-.27.29-.45.39H40.1C39.83,163.66,39.79,163.51,40,163.3Z"/><path class="x" d="M40.33,163.76l.45-.39,7.71.11s.13.08.13.11a1.48,1.48,0,0,1-.1.27l-3.35-.05Z"/><path class="y" d="M40.79,159.81l-.35-.75a6.73,6.73,0,0,1,1.43-2.8C41.9,157.56,41.15,158.63,40.79,159.81Z"/><path class="z" d="M180.11,75.84l.17,1c0,.52.54,1.36-.69,1.06l0-2.1Z"/><path class="r" d="M47,169.38c0-.74-.21-1.53.73-1.91A3,3,0,0,1,47,169.38Z"/><path class="aa" d="M163.8,139.3q.36,5.65.71,11.31-25.59,0-51.17-.1c-9.7,0-19.4-.22-29.1-.16-4.34,0-8.67-.14-13-.07,0-3.9,0-7.81,0-11.72.65-.78,1.57-.56,2.39-.57,6.78-.11,13.55,0,20.32,0,13.92,0,27.83-.09,41.75-.05,7.75,0,15.5-.12,23.25.07a11.24,11.24,0,0,1,2,.1,6.14,6.14,0,0,1,1.19.55C162.71,138.81,163.41,138.69,163.8,139.3Z"/><path class="h" d="M170.73,76.5c0,.64-.2,1.31.25,1.89.85,1.67.54,3.42.42,5.17-1.25,1.8-1.18,3.78-.73,5.8a4.07,4.07,0,0,1,0,2.56c-1.25,1.58-.47,3.5-.89,5.23l.51-.09a.71.71,0,0,1,.15.68c-.09.55-1,.87-.41,1.6a3.91,3.91,0,0,1,.3.41,1.89,1.89,0,0,1,.15,1c0,1.13,0,2.26,0,3.39.23.67-1.07-.22-.7.76.94,2.5-.45,4.58-1.52,6.63-.54,1-.87,1.76.44,2.31a1.44,1.44,0,0,1,.94,1.43,2.08,2.08,0,0,0,1.06,1.8.91.91,0,0,1,.15.56v4.15c0,3.33,0,6.67,0,10-.1,1.49.22,3-.18,4.47h0c-.43.45.05,1.13-.4,1.58-.34.27-.69-.17-1.14.16a4,4,0,0,1-6.36-1.84c-.24-.63-.8-1.07-1-1.74-.87-2.71-.1-5.43-.11-8.14V115.54a5.79,5.79,0,0,1,.25-2.34,108.73,108.73,0,0,0-.1-12.11.77.77,0,0,0-.37-.74,52.68,52.68,0,0,1,0-8.53,35.35,35.35,0,0,0-.57,8.94c0,.33-.29.51-.59.62-1.85.13-2-1.41-1.93-2.47.09-2-.67-3.68-.94-5.52,2.22-4.76,4-9.77,7.51-13.83.46-.53,1.11-.38,1.58-.53,1.72-.52,2.08-2.84,4-2.87A.23.23,0,0,1,170.73,76.5Z"/><path class="ab" d="M161.45,138.48l-85.09,0c-1.71,0-3.42,0-5.13.06-.26-.12-.66,0-.74-.43a2.43,2.43,0,0,1,2.13-.79c1.68.19,3.17-.05,3.85-2a1.66,1.66,0,0,1,1.8-1A1.75,1.75,0,0,1,80,135.55c.24.59.24,1.44,1.14,1.44s.88-.73,1.11-1.27c.39-1,1.23-1.12,2.1-1.19s1.32.46,1.62,1.21c.19.49.29,1.14,1,1.13s.87-.59,1.07-1.1a2.06,2.06,0,0,1,2.31-1.38c1.2.06,1.49.86,1.59,1.86s.72,1.16,1.57,1.08a30.06,30.06,0,0,1,3.29-.07c1.41,0,2.53-.27,3.21-1.84a1.86,1.86,0,0,1,3.43.21,2.22,2.22,0,0,0,2.64,1.63,3.37,3.37,0,0,1,.55,0c2.41.23,4.62,0,5.67-2.64a2.71,2.71,0,0,1,2-.11c.73.28.9.93,1.06,1.59.11.44.28.85.8.88a1.1,1.1,0,0,0,1.12-.78c.25-.61.34-1.32,1-1.65a2.84,2.84,0,0,1,1.93,0,1.88,1.88,0,0,1,1,1.45c.11.48.25,1,.88,1s1-.44,1.11-1a2.22,2.22,0,0,1,.61-1.29,2.19,2.19,0,0,1,1.21-.35c4.17,0,8.35-.18,12.51.1a1.82,1.82,0,0,1,1.27,1.43c.14.5.14,1.18.93,1.13s.93-.53,1.12-1.07a2,2,0,0,1,1.26-1.47,125.66,125.66,0,0,1,13,0c.88.23,1.17.92,1.33,1.73.11.58.19,1.3,1,1.18s.89-.72,1-1.35a3.94,3.94,0,0,1,.23-1.23.69.69,0,0,1,1.14-.22c.44,1,.78,2.09,0,3.08.64-.68.66-1.27,0-3.2-.75-.53-1.56-.11-2.32-.11-16,0-32,0-48.07,0-5.67.29-11.34,0-17,0-6.65.07-13.3,0-20,0a3.8,3.8,0,0,1-2-.23l0-1.06c.09-.84.78-.84,1.35-.93a15.78,15.78,0,0,1,2.38-.07h83a14.91,14.91,0,0,1,3.65.22,1.6,1.6,0,0,1,.83.64c.24,1.78.65,3.57,0,5.36Z"/><path class="ac" d="M161.12,132.63q-44.2,0-88.41,0c-.76,0-1.6-.3-2.26.37a2.58,2.58,0,0,0-.84-.3c-1,0-2-.11-2.37-1.26a2.54,2.54,0,0,1,1-2.88.92.92,0,0,1,.92-.07,157.22,157.22,0,0,0,18.42.07c1.63-.13,3.27.37,4.88-.14a1.42,1.42,0,0,1,1-.11,10.44,10.44,0,0,0,3.6.48c7.91,0,15.82-.09,23.72.05.34.34.55.7,0,1a2,2,0,0,1-1.07.16c-7.89-.11-15.77.29-23.65.2-.17,0-.29-.07-.12.05,20.58-.41,41.46.08,62.35-.19a6.2,6.2,0,0,0-2.15-.2H124.43c-1,0-2.11.21-3-.6a.78.78,0,0,1,0-.68,1.12,1.12,0,0,1,1.33-.15,9,9,0,0,0,2.37.12q16.77,0,33.54,0c.89,0,1.87-.28,2.59.55A4.4,4.4,0,0,1,161.12,132.63Z"/><path class="ad" d="M112.64,98.9c1.77.18,3.29,1.51,5.19,1.11.35.34,1,.25,1.22.74.26,1.09-.81,1.65-1,2.54a2.15,2.15,0,0,1-.35,1.35c-.49.39-1.12.55-1.55,1s-.1.9.25,1.22c.94.85,1.66,1.91,2.56,2.79a3,3,0,0,1,.56,1.34,3.32,3.32,0,0,0,3.4,2.67,1.5,1.5,0,0,1,1.51.8c.25.58,0,.93-.59,1.12a1.61,1.61,0,0,1-.62,0c-6.9-.1-13.79,0-20.68,0a11.46,11.46,0,0,1-2.55-.13,1.35,1.35,0,0,1-.55-.33,1.88,1.88,0,0,1,.18-1.75,1.21,1.21,0,0,1,.38-.4,17.64,17.64,0,0,0,3.17-2v0a35,35,0,0,1,4.12-1.4,13,13,0,0,0,4.25-2.35c.63-.6.93-1.06-.3-1.45a4.68,4.68,0,0,1-3.52-3.94c.38-1.64,0-3.5,1.56-4.82.84-.72,1.07-.47,1.27.39-.08.35-.38.6-.49,1.08.83-.71,1.53-.2,2.25.08A2.37,2.37,0,0,1,112.64,98.9Z"/><path class="c" d="M112.32,134.83c-1,2.93-1,2.93-4.37,2.93-1,0-2,0-2.93,0s-1.92-.26-1.89-1.64c0-1.07-.82-1.24-1.65-1.28a1.09,1.09,0,0,0-1.27,1.2c0,1.62-1.35,1.55-2.36,1.69-1.74.23-3.51-.12-5.28.26-1.12.23-1.12-.89-1.15-1.65s0-1.58-1.23-1.53c-.94,0-1.74.12-1.72,1.34A1.46,1.46,0,0,1,87,137.66c-1,.09-1.37-.63-1.41-1.53,0-.67-.24-1.39-1-1.2s-2-.1-1.94,1.37c.05,1-.62,1.42-1.5,1.42s-1.5-.44-1.44-1.48c0-.87-.31-1.41-1.26-1.41-.68,0-1.34,0-1.63.82-.56,1.57-2.24,2.82-3.75,2.37-1-.3-1.69.17-2.53.11v-4a3.82,3.82,0,0,1,2.13-.37c10.39,0,20.78,0,31.17.05,1.87,0,3.73,0,5.59,0C110.07,134.86,111.53,134,112.32,134.83Z"/><path class="ae" d="M157.46,93.39c.82,1.42,1.6,2.8,1.39,4.59-.13,1.13-.39,2.52,1.17,3.11a.8.8,0,0,1,0,1.1c-1.39.68-2,2.41-3.57,2.84-.25.07-.4.36-.78.26-2.62-.69-5.53-.86-7.8-2.15s-5.23-.92-7.29-2.75c.22-.76,0-1.59.38-2.33a4.72,4.72,0,0,1,3.85-.47c2.88.52,5.64-.76,8.37-.61C156.22,97.15,156.46,95.06,157.46,93.39Z"/><path class="af" d="M47.38,147.29c-1.37-.27-1.73,1.43-2.93,1.48-.2.15-.47.28-.66.12a18.79,18.79,0,0,0-4.2-3.21c-.2-.09-.07-.44,0-.66s0-.55.36-.68c1.2-.34,1.59-1.63,2.59-2.2h0c1.19.27,1.13,1.06.69,1.87s-.63,1.45.16,2.09a2.5,2.5,0,0,1,.32.33c.18.39.31.82.76,1,.61-.09,1-.71,1.65-.68a6.63,6.63,0,0,1-.7-6.56,10.43,10.43,0,0,1,3.82-1.58,5,5,0,0,1,2.57-.82c.43,0,1-.08.94.7l-.29.38c-.28.47-.32,1.06-.75,1.46h0a5.52,5.52,0,0,1-.73,1.48h0c-.24.38-.37.86,0,1.12s.68-.15.92-.42c1-1.14,1.72-2.5,2.76-3.62a5.3,5.3,0,0,1,6.35-.76,5.26,5.26,0,0,1,1.54,5.74,2.54,2.54,0,0,1-2.75,1.63c-.26-.07-.72-.07-.39-.5s1-.55.5-1.13a1.23,1.23,0,0,0-1.38-.17c-1,.42-1.92,1.14-2.91-.16-.19-.25-1.14.06-1.74.11a40.43,40.43,0,0,0-6.59,3.67Z"/><path class="ag" d="M123.66,115.35l.34.05c.7-.38,1.45-.57,1.77.39.39,1.19-.28,1.8-1.4,2-2,.42-3.94-.08-5.9.27q-12.52,0-25,0a7.61,7.61,0,0,1-2.18-.15,3,3,0,0,1-.62-.37,4.49,4.49,0,0,0-.85-.29c-.52-.08-.94-.2-.92-.87s.47-1,1.07-1c1.58,0,3.16,0,4.73,0a1.64,1.64,0,0,0,1.35-.39,1.7,1.7,0,0,1,.58-.14,7.48,7.48,0,0,1,3,.29h22A5.15,5.15,0,0,1,123.66,115.35Z"/><path class="ah" d="M124,117.58c.46-.5,1.69,0,1.57-1.27s-1-.78-1.6-.91c.43-.8.14-1.35-.71-1.42-2.7-.24-3.5-.86-4.25-3.49a3.43,3.43,0,0,0-.34-.62c-1.09-1.34-1.64-3-2.77-4.36,0-1.07,1.12-.58,1.53-1.09.65-.38.64-.77,0-1.17.15-1,1.64-1.19,1.33-2.41a2.23,2.23,0,0,1-.24-1c.31-.2.58-.21.69.21.39,1.42-.76,4.61-1.94,5.27a12.09,12.09,0,0,1,2.42,5.5,2.68,2.68,0,0,0,3,2.35c1.9,0,3.71,1.85,3.52,3.48,0,.34-.11.85-.34,1-2.48,1.5-2.08,4.14-2.56,6.4-.19.89-.84,1.57-.8,2.58,0,1.18.37,1.6,1.59,1.58,4-.06,8.06,0,12.1,0,7.58,0,15.16,0,22.74,0,1.63,0,2.25-.34,2.19-2.1-.14-3.78-.06-7.58,0-11.36,0-.61-.31-1.43.72-1.61,0,.11,0,.23,0,.34-.1,4.31,0,8.61-.05,12.92a4,4,0,0,1-.25,2.14,1,1,0,0,1-.65.25c-10.47-.16-20.94,0-31.41-.08a66.53,66.53,0,0,1-6.92-.1l-1.06-.1c-.63-.85-.06-1.71,0-2.57.63-2.22,1-4.49,1.59-6.73C123.26,118.62,123.31,117.91,124,117.58Z"/><path class="ai" d="M122,126.05c-.13.84-.27,1.67-.41,2.51l-.09.36c-.15.27-.41.25-.66.25-8.58,0-17.17.09-25.75.09a2.78,2.78,0,0,1-2-.72,19.84,19.84,0,0,1-1.72-7.26c-.24-1.23-.47-2.46-.71-3.69H91a2.33,2.33,0,0,1,.73.63c1.14,2.65,1.21,5.58,2.12,8.3A1.81,1.81,0,0,0,95.79,128q11.55,0,23.1,0a1.65,1.65,0,0,0,1.78-1.25C120.85,126.2,121.13,125.57,122,126.05Z"/><path class="aj" d="M107.67,101.84c1.07,1.77,2.09,3.57,4.54,3.71.87,0,.6.62.27,1.16-1.15,1.85-3.12,2.39-4.93,3.18-.38.22-.94.37-1-.1-.13-.62.76-.6,1-1h0a2.51,2.51,0,0,0,1-3.71A3.33,3.33,0,0,1,107.67,101.84Z"/><path class="ak" d="M160,102.19v-1.1c1.22-.24.12-.75.14-1.13a44.35,44.35,0,0,1,1.47-10.27c.06,3.55.62,7.1-.14,10.66C161.4,101.29,160.71,101.73,160,102.19Z"/><path class="al" d="M141,98.06c.33.85.68,1.7-.38,2.33-1.28-.33-2.57-.69-3.86-1A1.29,1.29,0,0,1,135.63,98c0-.74.68-.89,1.27-1.09C138.54,96.33,139.58,97.77,141,98.06Z"/><path class="am" d="M91.33,121.28c.57,2.42,1.15,4.84,1.72,7.26l-.55.11c-2.09.43-4.22.16-6.32.24-5.71.19-11.43.13-17.14-.23l-.77-.07c.36-.7,1-.34,1.49-.35,6.87,0,13.75,0,20.62,0H92C92.32,125.76,90.44,123.69,91.33,121.28Z"/><path class="an" d="M96.23,115.06H96c0-.7-.94-1.81.81-1.77.61,0,.35-.65.47-1,.5-1.41,1.84-1.41,2.9-1.55.65-.09-.14.58,0,.92-.18.48.22,1.08-.3,1.5a2.54,2.54,0,0,1-.4,1.49A21.93,21.93,0,0,1,96.23,115.06Z"/><path class="ao" d="M49.2,138.8a16.88,16.88,0,0,0-3.67,1.54c-1.07,1.35-.29,2.87-.35,4.31,0,.81.31,1.66-.43,2.34a.72.72,0,0,1-1-.43l-.31,0c-.63-1.27.18-2.53.05-3.8a3.15,3.15,0,0,1,.6-1.64c1.24-1.81,3.18-2.24,5.15-2.61.11.07.15.14.11.21S49.24,138.8,49.2,138.8Z"/><path class="ap" d="M170.73,76.5l-.13-.34c0-.74,0-1.48.05-2.22L174,72.47c.35-.08.51,0,.4.4C173.53,74.46,172.76,76.11,170.73,76.5Z"/><path class="aq" d="M54,153.92A10.13,10.13,0,0,0,48.8,152c-.33-.29-1-.38-.7-1.07a5.44,5.44,0,0,1,4.24,1.12,3,3,0,0,0,2,.72c.11.06.15.13.13.21s0,.12-.08.12A.86.86,0,0,0,54,153.92Z"/><path class="ar" d="M54.39,153.13c0-.11,0-.22,0-.33,2.32.5,2.68-1.62,3.67-2.82.57-.68.9-.85,1.46-.12C58.48,152.25,57,153.18,54.39,153.13Z"/><path class="as" d="M112.28,98.86c-.7.17-1.71-1-2.14.6-.09.34-.75-.08-.72-.59,0-.69.23-1.33,1.08-1.46l1.79-.26A1.6,1.6,0,0,1,112.28,98.86Z"/><path class="at" d="M54.74,138.87a14,14,0,0,1-3,4.19c-.32.34-.66,1.08-1.26.62-.41-.31-.11-.9.13-1.32a4.65,4.65,0,0,1,.42-.57c.72,1.38,1.16.13,1.37-.26A6.29,6.29,0,0,1,54.74,138.87Z"/><path class="au" d="M43.72,142.55c-.12,1.33.16,2.69-.32,4-1.24-.62-1.63-1.47-.58-2.57.72-.76.32-1.3-.24-1.85l.36-.36C43.72,141.51,44,141.76,43.72,142.55Z"/><path class="av" d="M161.86,101.09c.6.54.35,1.26.35,1.89,0,3.41,0,6.81,0,10.21-.12.18-.24.17-.36,0h0Z"/><path class="aw" d="M107.53,108.75c.65.37-1.86.79,0,1.14a19.79,19.79,0,0,1-4.43,1.09A28.06,28.06,0,0,1,107.53,108.75Z"/><path class="at" d="M49.2,138.8v-.31a3.61,3.61,0,0,1,3-1.07c.59.07,1.32.18.61,1.06C51.5,137.52,50.39,138.6,49.2,138.8Z"/><path class="au" d="M42.58,142.14c-.87.72-.83,2.53-2.59,2.2l1.15-1.44C41.64,142.69,42,142.13,42.58,142.14Z"/><path class="ax" d="M103.13,111a6.87,6.87,0,0,1-2.91,2.23c-.29-.72.41-.78.73-1.09A5.25,5.25,0,0,1,103.13,111Z"/><path class="ay" d="M166.21,62.06c.2.91-.89,1-1.07,1.65C164.55,62.78,164.58,62.74,166.21,62.06Z"/><path class="az" d="M101,112.1c-.24.37-.49.73-.73,1.09H100l-.18,0c0-.53-.18-1.08.3-1.5A.86.86,0,0,0,101,112.1Z"/><path class="ba" d="M55.77,147c-.34-.09-.88-.16-.79-.55s.7-.56,1.19-.58C56,146.24,55.9,146.61,55.77,147Z"/><path class="ay" d="M165.13,63.7c.35.12.81-.48,1.06.12.13.31-.16.53-.44.66Z"/><path class="bb" d="M43.72,142.55a.75.75,0,0,0-.77-.78l1.1-.67C44,141.6,44.19,142.15,43.72,142.55Z"/><path class="aw" d="M108.65,107.7c.08.84-.3,1.19-1.13,1.06Z"/><path class="ar" d="M60.25,148.81,59.1,148C59.44,148.35,60.93,147,60.25,148.81Z"/><path class="bc" d="M112.28,98.86c0-.57,0-1.14,0-1.71.58.49.16,1.18.35,1.75Z"/><path class="at" d="M51,141.79a2.11,2.11,0,0,1,.73-1.48A1.27,1.27,0,0,1,51,141.79Z"/><path class="at" d="M51.75,140.32a2.26,2.26,0,0,1,.75-1.46C52.54,139.49,52.45,140.06,51.75,140.32Z"/><path class="bd" d="M118.56,99.89c.19.29.43.57.24,1a1,1,0,0,1-1-.83Z"/><path class="h" d="M162.23,134.83c.54.3,1.1.68,1.06,1.35-.11,1.74,1.4,1.95,2.38,2.19,1.16.28,2.62.64,3.51-1,.43-.76.54.8,1.1.35a1.43,1.43,0,0,1,0,1.49,44.81,44.81,0,0,1-6.24,0c-.7-.54-1.44-.12-2.17-.08-.33-.1-.41-.37-.44-.67h0C162.39,137.38,161.33,135.91,162.23,134.83Z"/><path class="h" d="M161.89,139.15c.73,0,1.5-1.19,2.17.08a.3.3,0,0,1-.26.07Z"/><path class="be" d="M170.3,139.25c0-.5,0-1,0-1.49s-.16-1.09.39-1.47c0,1,0,2,0,3Z"/><path class="bf" d="M34.61,153.11c-.65-.84-.92-2-1.89-2.58.93-3.91-1.91-5.83-4.3-7.89a56.26,56.26,0,0,0-4.9-3.41c-.09-.33,0-.51.37-.37a37.48,37.48,0,0,1,7.35,4.64,14.58,14.58,0,0,1,2.87,3.72c-.68,1.87.67,3.44.79,5.2C35.08,152.76,35.24,153.1,34.61,153.11Z"/><path class="bg" d="M23.89,138.86l-.37.37L19.12,137c-.09-.33,0-.51.37-.38A17,17,0,0,1,23.89,138.86Z"/><path class="bh" d="M19.82,149.89l-.38-.35c.27-.72,1-.84,1.56-1.19l1.37.11Z"/><path class="bi" d="M19.49,136.64l-.37.38-2.33-1.16A4.4,4.4,0,0,1,19.49,136.64Z"/><path class="bj" d="M45.17,164.15c1.21-.15,1.65.43,1.45,1.57-.1.59-.24,1.16-.35,1.74a17.65,17.65,0,0,1-7.72,9.17h-.36a5.31,5.31,0,0,1-2.93,0c.53-1,1.69-1.3,2.53-1.95a12.47,12.47,0,0,0,5.1-8.62C43.08,164.37,43.75,164,45.17,164.15Z"/><path class="bk" d="M33.48,161.31c1.38,0,1.56,1.26,2.14,2.09,0,.25-.25.26-.4.36H35c0-.16-.09-.31-.14-.46A2.09,2.09,0,0,1,33.48,161.31Z"/><path class="r" d="M35.26,176.64h2.93A2.79,2.79,0,0,1,35.26,176.64Z"/><path class="bl" d="M35.22,163.76l.4-.36,1.07,0a.87.87,0,0,1,1.11,0l0,0c.13.07.17.14.13.22s-.08.11-.12.11Z"/><path class="bm" d="M37.83,163.78c0-.11,0-.22,0-.33L40,163.3c0,.15.06.3.1.45Z"/><path class="n" d="M172.87,97.37l4-6.19c.81.54,1.39-.25,2-.45,1.93-.62,3.34,0,3.42,2,0,1,1.23,2,.45,2.89-1,1.18-2.67,1-4,1.37s-2.7.67-4.05,1a.35.35,0,0,1-.35.29A2,2,0,0,1,172.87,97.37Z"/><path class="bn" d="M174.4,98.12a.77.77,0,0,0,.3-.11c.73.64,1.22,1.36.74,2.37h-.33a8.74,8.74,0,0,1-5.21-.72h0c-.63-.57-.73-1,.18-1.44A4.94,4.94,0,0,1,174.4,98.12Z"/><path class="bo" d="M170.29,104.39c0-1.35,0-2.69,0-4,.13-.12.24-.1.33.05a120.42,120.42,0,0,0,.36,13.16.68.68,0,0,1-.57.16l-.27-.15a1.59,1.59,0,0,1-.28-.55,24.53,24.53,0,0,1,0-5.28c0-.83,0-1.67,0-2.5A1.56,1.56,0,0,1,170.29,104.39Z"/><path class="bp" d="M170.67,131.9V121.62q.18-.24.36,0v10.27C170.91,132.06,170.79,132.06,170.67,131.9Z"/><path class="bq" d="M170.66,100.4a.76.76,0,0,0-.33-.05c-.15-.23-.29-.46-.43-.69a28.42,28.42,0,0,0,5.21.72c-1.22.8-2.47.09-3.71.1Z"/><path class="br" d="M171,121.62h-.36v-4.4a.22.22,0,0,1,.36,0Z"/><path class="bs" d="M170.67,131.9H171c-.18,1.47.4,3-.37,4.41C170.67,134.83,170.67,133.36,170.67,131.9Z"/><path class="bt" d="M171,117.22h-.37a3.19,3.19,0,0,1,0-3.67H171C171,114.78,171,116,171,117.22Z"/><path class="bu" d="M32.62,160.46,30.87,159h.92C32.18,159.44,32.81,159.71,32.62,160.46Z"/><path class="bv" d="M171.4,83.56c-.74-1.68-.33-3.44-.42-5.17l3.5,0-.45.81c-1.09,0-2.22,0-2.14,1.66.75-.1.81-1.28,1.69-1C173.11,81.22,172.73,82.67,171.4,83.56Z"/><path class="bw" d="M173.58,79.82c-.63.27-.76.91-1.06,1.42-.19.3-.35.71-.79.57s-.3-.59-.33-.93q-.21-3,2.63-1.72Z"/><path class="bx" d="M173.65,90.08c.54.73.44,1.37-.38,1.74-.45.2-1.06.14-1.08-.52s-.57-1.93,1-2C173.61,89.42,173.13,90.08,173.65,90.08Z"/><path class="bq" d="M174.4,98.12c-1.37,0-2.73-.58-4.12.3-.71.44-.55.74-.37,1.24-1.73-1-.33-1.42.39-2a.35.35,0,0,1,.37-.06l2.2-.27C173.4,97.57,174,97.63,174.4,98.12Z"/><path class="by" d="M179.59,77.93c.71,0,.57-.64.69-1.06.25-.05.63-.37.54.26a6.12,6.12,0,0,1-1.34,2.33h0C178.47,78.88,178.7,78.38,179.59,77.93Z"/><path class="bz" d="M177.48,84.69c-.62.9-1.45.52-2.4.61C175.78,84.07,176.76,84.93,177.48,84.69Z"/><path class="h" d="M178,84.55c.06-.92.16-1.48.63-1.87a.89.89,0,0,1,.51.4C179.37,83.85,178.69,84,178,84.55Z"/><path class="h" d="M179.48,79.46c.32.47,1.23-.57,1.33.52a.59.59,0,0,1-.65.69c-.8,0-.65-.69-.69-1.21Z"/><path class="ca" d="M173.65,90.08c-.23.7-.38.75-.42,0,0-.23,0-.45,0-.68.15-.48-.13-1.1.45-1.46l.25,0A4,4,0,0,0,173.65,90.08Z"/><path class="cb" d="M170.67,91.92V89.36A2.13,2.13,0,0,1,170.67,91.92Z"/><path class="n" d="M170.67,97.64l-.37.06c0-.22,0-.43,0-.64.09-.49-.18-1,.38-1.68Z"/><path class="cc" d="M173.88,87.87l-.25,0c0-.48-.19-1,.53-1.49Z"/><path class="cd" d="M47.37,147.3c1.75-2,4.14-2.89,6.59-3.67C51.75,144.84,49.85,146.59,47.37,147.3Z"/><path class="ce" d="M48.1,151l.7,1.07c-.62-.05-1.47.28-1.65-.6C47,150.85,47.71,151,48.1,151Z"/><path class="au" d="M39.63,145c.1.21.18.6.29.61,1.84.16,2.77,1.49,3.73,2.81.14.2.53.22.8.33a10,10,0,0,0-1.82,4.39,2.59,2.59,0,0,0-1.17-2.44C39.21,148.79,38.79,147.32,39.63,145Z"/><path class="cf" d="M37.8,163.4l-1.11,0a24.35,24.35,0,0,0-.76-7.56c-.16-.41,0-.48.39-.43A13.84,13.84,0,0,1,37.8,163.4Z"/><path class="cg" d="M36.32,155.38l-.39.43a10.91,10.91,0,0,1-1.32-2.7l.29-.69C35.37,153.41,35.85,154.39,36.32,155.38Z"/><path class="ch" d="M174.36,72.87l-.4-.4a2.15,2.15,0,0,1,1.08-1A2,2,0,0,1,174.36,72.87Z"/><path class="h" d="M170.67,113.56c0,1.22,0,2.44,0,3.67-.91.07-1.59-.11-1.47-1.26.1-.92-.05-1.51-1.18-1.84s-1.29-1.23-.56-2.34c1.31-2,2.65-4,1.94-6.64-.27-1,.25-.92.9-.76v.74a3.91,3.91,0,0,0,0,2.55c0,2,0,3.92,0,5.88-.63.23-.56-.45-1-.65.32.35.32.94,1,.64Z"/><path class="ci" d="M162.23,134.83c0,.88,0,1.77,0,2.66,0,.52-.09.94-.73,1,0-1.85,0-3.69-.05-5.53a13,13,0,0,1,.05-4.35V115.31a3.79,3.79,0,0,1,.37-2.12h.36Q162.22,124,162.23,134.83Z"/><path class="cj" d="M165.71,84.26c.19-.4.45-.76.95-.6s.78.37.54.93a.62.62,0,0,1-.43.18A1.44,1.44,0,0,1,165.71,84.26Z"/><path class="ck" d="M169.1,125.33c.16-.08.3-.21.44-.22.32,0,.37.25.3.47s-.22.19-.34.28Z"/><path class="cl" d="M167.15,84.59h0c-.14,1.29-.73.93-1.37.37C166,84,166.82,85.11,167.15,84.59Z"/><path class="cm" d="M167.15,84.59c-.3.62-1-.1-1.32.38-.32-.19-.39-.42-.12-.71Z"/><path class="cb" d="M170.23,91.15c-.17.14-.28.31-.4.32s-.39-.06-.43-.16c-.1-.27.1-.43.35-.42S170,91,170.23,91.15Z"/><path class="cn" d="M112.32,134.83c-.73,0-1.46-.06-2.18,0-1,.1-.87-.49-.76-1.11q24.53,0,49,0c.78,0,2-.52,2,1.08a.49.49,0,0,1-.73,0c-.25-.38-.49-.38-.74,0a2.81,2.81,0,0,1-3.3,0H141.68a3.31,3.31,0,0,1-3.67,0c-4.14,0-8.28,0-12.42,0-.64,0-1.36-.24-1.89.35a4,4,0,0,1-3.31-.36h-2.2a3.31,3.31,0,0,1-3.67,0Z"/><path class="c" d="M155.62,134.83h3.3a11.24,11.24,0,0,1-.09,2.18c-.2.88-1.12.91-1.79,1s-.94-.67-1-1.25A4.33,4.33,0,0,0,155.62,134.83Z"/><path class="c" d="M138,134.83h3.67c-.67.71.06,2-1.12,2.53-1.42.66-2,.4-2.2-1.14A11.31,11.31,0,0,0,138,134.83Z"/><path class="c" d="M114.52,134.83h3.67a5.12,5.12,0,0,0-.43,1.72c-.21,1-1.14,1-1.86,1s-1.07-.48-1-1.22A2.63,2.63,0,0,0,114.52,134.83Z"/><path class="c" d="M120.39,134.83c1.11.08,2.26-.25,3.31.36,0,.6.19,1.28-.24,1.77a2,2,0,0,1-1.82.63c-.71-.11-.89-.68-.9-1.37A6.3,6.3,0,0,0,120.39,134.83Z"/><path class="c" d="M159.66,134.83h.73a8.64,8.64,0,0,0,.18,1.77c.38,1.22-.23,1.46-1.58,1.57A2.44,2.44,0,0,0,159.66,134.83Z"/><path class="co" d="M161.49,128.59a20.41,20.41,0,0,1-.05,4.35l-.32-.31v-3.3a.45.45,0,0,1,0-.68Z"/><path class="cp" d="M120.81,129.17l.66-.25c.58.68,1.37.39,2.06.39q17,0,33.92,0a6.79,6.79,0,0,1,1.63.07c.83.23.61,1,.51,1.54-.12.72-.58.41-.94.15a3.07,3.07,0,0,0-2-.29c-3,0-6,0-9,0-17.34.25-34.68-.61-52-.38a1.27,1.27,0,0,1-1.22-.36H96.6c7.81.19,15.6-.64,23.41-.38C120.32,129.69,121,130,120.81,129.17Z"/><path class="cq" d="M161.12,128.65v.68a4,4,0,0,0-2.31-.37H124.73c-.7,0-1.47.25-2.11-.29Z"/><path class="cr" d="M69,128.66H92.5c-.07.53-.42.78-.9.63-1.87-.57-3.7-.14-5.58,0-2.85.2-5.72.1-8.59,0-2.46-.05-4.92-.23-7.38-.35A1.31,1.31,0,0,1,69,128.66Z"/><path class="cs" d="M119.32,114.38,107.5,113C111.72,112,115.46,111.4,119.32,114.38Z"/><path class="ct" d="M123.66,115.35l-24.55,0c-.08-.33,0-.51.37-.37q11.13,0,22.27,0C122.39,115,123.1,114.79,123.66,115.35Z"/><path class="cu" d="M115.93,105.51c2,.76,2.11,2.74,2.77,4.36-1.17-1.18-2.41-2.29-3.47-3.56C114.56,105.5,115.41,105.54,115.93,105.51Z"/><path class="cv" d="M99.48,115l-.37.37c-1-.14-2,.36-2.88-.33a2.74,2.74,0,0,1,3.23-.4C99.47,114.78,99.47,114.9,99.48,115Z"/><path class="cw" d="M117.47,103.25c.35,0,.8,0,.84.49s-.39.66-.85.68A1.17,1.17,0,0,0,117.47,103.25Z"/><path class="au" d="M44.47,146.94c.72-1.54.2-3.17.36-4.75.06-.69-.2-1.49.7-1.85a8.75,8.75,0,0,0,1,6.53,4.72,4.72,0,0,0-1.68,1c-.42.5-.32-.14-.43-.31A.4.4,0,0,1,44.47,146.94Z"/><path class="cx" d="M44.47,146.94c0,.22,0,.43-.07.65-.7,0-1.13-.23-.69-1Z"/><path class="cy" d="M122,126.05c-.38,0-.82.12-.78.56.17,2.06-1.13,2-2.59,2-7.25,0-14.5,0-21.75,0-1.7,0-3.29.56-3.64-2.46A69.53,69.53,0,0,0,91.4,118a3.93,3.93,0,0,1,2-.17c7.86,0,15.73,0,23.59,0a3.46,3.46,0,0,0,2-.19c1.7-.41,3.4,0,5.1,0C123.34,120.41,122.66,123.23,122,126.05Z"/><path class="cz" d="M118.93,117.58c-.59.65-1.38.36-2.07.37q-12.73,0-25.46,0l-.37-.38Z"/><path class="h" d="M170.28,107.68a2.15,2.15,0,0,1,0-2.55C170.29,106,170.29,106.83,170.28,107.68Z"/><path class="h" d="M170.3,113.55c-.08.36-.17.82-.66.42s-1.1-.83-1-1.6a.56.56,0,0,1,.64-.51c.52.06.65.47.69.92a1,1,0,0,0,.38.78Z"/></svg>