<svg xmlns="http://www.w3.org/2000/svg" viewBox="0 0 201.76 202.04"><defs><style>.a{fill:none;}.b{fill:#fff;}.c{fill:#e5c08c;}.d{fill:#e8f1fe;}.e{fill:#e3c090;}.f{fill:#ddc89a;}.g{fill:#e4c08e;}.h{fill:#d4edef;}.i{fill:#e8eefa;}.j{fill:#fdaaa8;}.k{fill:#f18b8b;}.l{fill:#e1c192;}.m{fill:#e7c9a3;}.n{fill:#dac3a5;}.o{fill:#5191aa;}.p{fill:#e0c59c;}.q{fill:#2ab1c2;}.r{fill:#2bb1c2;}.s{fill:#e4c191;}.t{fill:#2bb0c2;}.u{fill:#2ab2c1;}.v{fill:#c6cbaf;}.w{fill:#c3e5e4;}.x{fill:#233770;}.y{fill:#fefefe;}.z{fill:#e3c18c;}.aa{fill:#e7be8f;}.ab{fill:#2c3a64;}.ac{fill:#e0bf99;}.ad{fill:#e4c092;}.ae{fill:#dfc193;}.af{fill:#d5c5a0;}.ag{fill:#ceb8a3;}.ah{fill:#d1c2b3;}.ai{fill:#d5c9b1;}.aj{fill:#2c4784;}.ak{fill:#243971;}.al{fill:#e5f0fd;}.am{fill:#dfe9fc;}.an{fill:#e1ebfb;}.ao{fill:#e0ecfc;}.ap{fill:#e0e8fa;}.aq{fill:#e1ecfc;}.ar{fill:#eaeef2;}.as{fill:#e8f2f4;}.at{fill:#d2bea6;}.au{fill:#eff1eb;}.av{fill:#d8c79f;}.aw{fill:#ea8d8d;}.ax{fill:#de9b9f;}.ay{fill:#edfefe;}.az{fill:#fea8a7;}.ba{fill:#172b56;}.bb{fill:#f1898c;}.bc{fill:#353a65;}.bd{fill:#2c3754;}.be{fill:#3e2e50;}.bf{fill:#df8b98;}.bg{fill:#32374a;}.bh{fill:#c2a8c2;}.bi{fill:#2f2d4f;}.bj{fill:#fda8a8;}.bk{fill:#334578;}.bl{fill:#e3a2b2;}</style></defs><rect class="a" width="201.76" height="202.04"/><path class="b" d="M55.77,54.36a48.35,48.35,0,0,1,8.45-9.6A76.28,76.28,0,0,1,77.4,35.08a72.81,72.81,0,0,1,24-8.59,67.75,67.75,0,0,1,14.35-1.07,75.9,75.9,0,0,1,26.27,5.7A72.55,72.55,0,0,1,166.4,47.89,71.59,71.59,0,0,1,185.25,84a68.13,68.13,0,0,1,1.43,17.15c-.8,14.55-5.08,27.93-13.8,39.76a71.7,71.7,0,0,1-8.71,10.1,72.56,72.56,0,0,1-36.37,18.79c-1.57.3-3.16.5-4.73.75a2.84,2.84,0,0,1-.61-2.34q0-38.06,0-76.12a1.08,1.08,0,0,1,0-.18c.09-2.5.58-2.8,2.94-1.8,3.86,2.28,7.93,4.2,11.89,6.32a5.13,5.13,0,0,1,1.16.78c.37,0,0-.2,0-.23-.11-.21.05,0-.09-.16q-2.61-2.82-5.23-5.59c-3.11-3.29-6.33-6.47-9.47-9.72a3.55,3.55,0,0,1-.76-2.68c0-4.7-.14-9.41,0-14.11A4.56,4.56,0,0,0,120,60a2.22,2.22,0,0,1-1.43-1.65,4.25,4.25,0,0,0-4-3.44c-.72-.06-1.43,0-2.15,0q-27,0-54,0C57.57,54.84,56.57,55.11,55.77,54.36Z"/><path class="c" d="M125.83,90.86c-2.82-1-2.82-1-2.82,2.11v74.94c0,.89,0,1.78,0,2.67.28,4.89-1.38,6.18-6.36,6-2.42-.07-4.85,0-7.27-.06a8.74,8.74,0,0,1-3.42-6.33,1.87,1.87,0,0,1,.32-.42c.56-.6,1.87-.12,2-1.18.09-.76-.71-1.34-.95-2.08a10.56,10.56,0,0,0-2.23-3.48c-2.34-2.74-4.17-5.88-6.26-8.81a35.62,35.62,0,0,1-2.48-3.7A5.48,5.48,0,0,1,96,150c-.47-1.21-.1-3-2.09-3.15-.4-1.4-1.73-2.08-2.45-3.23-.58-1-1.23-1.9-1.81-2.86-.85-1.38-1.82-2.49-3.67-2.28a1,1,0,0,1-1.21-.56c-.18-.53.32-.83.65-1.16,1.49-1.51,1.53-3.35,1.27-5.31-.29-2.21-.79-4.41-1-6.63a60.94,60.94,0,0,1,.07-12.23,76.46,76.46,0,0,0,.6-10.24,11.18,11.18,0,0,0-2.11-7A4.11,4.11,0,0,0,83.05,94a45.32,45.32,0,0,0-3.92-2.83A4.27,4.27,0,0,0,77.19,90c-5.29-1.87-10.63-3.48-16.36-2.57a25.81,25.81,0,0,0-13.91,6.69c-6.86,6.39-10,14.32-10,23.57,0,1.19,0,2.38,0,3.57a11.81,11.81,0,0,0,.66,4.75,1.72,1.72,0,0,1,.16.5c0,1.58.88,2.91,1.19,4.4a19.55,19.55,0,0,0,.1,3.9c.07,1.3-.3,2.22-1.76,2.39-.34,0-.65.42-1,.39-3.35-.4-4.77,2.29-6.67,4.17a31.1,31.1,0,0,1-5.29,4.42c-.61.37-.43,1.24-.83,1.79a5.68,5.68,0,0,1-2,2.07c-.58.33-1.21.55-1.52-.37a8.15,8.15,0,0,1-.19-2.31v-82a5.92,5.92,0,0,1,.71-3.62,4.6,4.6,0,0,1,3.76-2.12c8.52-.1,17-.25,25.54.06C51,60,51,61.14,51.4,62.26c-.14-1.26.41-1.52,1.27-1.37a2.53,2.53,0,0,1,1.44,1,4,4,0,0,0,2.74.56H111a21.41,21.41,0,0,1,3.39.18c.37,0,1,.07.49-.64a4.33,4.33,0,0,0-2.46-.28q-26.91,0-53.82,0c-1,0-2,.3-2.8-.71.82-.93,1.9-.63,2.87-.63q27.81,0,55.61,0a10.11,10.11,0,0,0,2.85-.17c1.42-.55,2.74.06,4.09.37,1.59.78,2.06,2.11,2,3.81,0,5,0,10,0,15a3.57,3.57,0,0,0,1.09,2.87c.45,1.88,2.22,2.71,3.32,4.07,1.55,1.92,1.52,2.65-.5,4C126.7,90.52,126.56,91.28,125.83,90.86Z"/><path class="d" d="M20.37,150.16a8.14,8.14,0,0,0,2.88-2.46c1.35-1.9,3.28-3.17,5-4.67a12.28,12.28,0,0,0,3.16-2.52,12,12,0,0,1,8.14-3.17,14.84,14.84,0,0,0,3.62-.68,2.11,2.11,0,0,1,.71-.3,1.51,1.51,0,0,1,.52,0c.57.2,1.11.49,1.67.72a17.57,17.57,0,0,0,5.26,1.53,3.74,3.74,0,0,1,2.41,1,14.38,14.38,0,0,1,1.3,3.17,2.69,2.69,0,0,0,.84,2.39.86.86,0,0,1-.06.5c-.7.75-1.44,1.11-2.35.34a17,17,0,0,1-2.09-3.19c4.15,9.5,8.32,19,12.8,28.66-.21-.81-.49-1.31-.58-1.86a7.89,7.89,0,0,1,.31-3.27c.26-.94.75-1.09,1.48-.44a3.66,3.66,0,0,1,.93,1.86c0,.53,0,1.07.51,1.42a1.33,1.33,0,0,1,.26.39,3.31,3.31,0,0,1,.11.94c.22.93.48,1.84,1.55,2.15.42,0,.74-.21.75-.6,0-1.79.73-3.46.86-5.24a16.33,16.33,0,0,1,1.47-5.79c.29-1.67,1.44-3.18,1-5A23.77,23.77,0,0,1,74,149.29c.78-2.87.86-5.83,1.62-8.68-.28-1.45-.57-2.91,1.28-3.61,2.21-.41,4.29.52,6.45.62a10.81,10.81,0,0,0,3.6.79c1.47,0,2.15,1.11,2.79,2.16S91.2,142.86,92,144a27.69,27.69,0,0,1,2.84,4.26c0,1.08,1,1.63,1.36,2.52a2.65,2.65,0,0,0,2,2.57,65.41,65.41,0,0,1,5.45,7.78c.62,1,1.83,1.58,1.85,2.92-.38,1.12-.07,2.42-.91,3.42a53.84,53.84,0,0,1-6,3.59,54.55,54.55,0,0,1-5.2,2.44,1.37,1.37,0,0,0-.91,1.5c-.4.67-.85,1.26-1.77.87-1.08-1.54-1.27-3.43-1.87-5.14-.68-1.94-1-4-1.81-5.92-.14-.36-.37-.78-.24-1,.48,2,.23,4.19.3,6.39,0,1.54.08,3.08,0,4.62a2.63,2.63,0,0,1-.52,1.83H31.42c-.88-1.49-.49-3.09-.36-4.64.17-2.1.53-4.19.61-6.3.52-3.36.32-6.78.66-9.95-1.73,3.33-3,7.11-5,10.59-.85,1.53-1,3.4-2.13,4.86-.28.39,0,.93,0,1.4a2.89,2.89,0,0,1-.8,1.65c-2,1.5-2,1.49-3.74-.5-.61-1-.31-2.16-.31-3.26.26-.1.62.11.8-.17s-.07-.35-.22-.43c-.37-.18-.44.28-.7.34-.56-.74-.25-1.45.06-2.17a2.13,2.13,0,0,1-.61-1.49c.13-4.62,0-9.23.07-13.85C19.83,151.81,19.67,150.88,20.37,150.16Z"/><path class="e" d="M18.57,167.69A3.94,3.94,0,0,1,15,163.75c0-.83,0-1.66,0-2.5V59.88c0-1.06-.11-2.14.72-3,.81.09.73.77.87,1.3.09,1.19,0,2.38,0,3.57q0,50,0,100c0,2,.18,3.7,2.21,4.63.35.33.95.59.73,1.17C19.42,168,18.94,167.88,18.57,167.69Z"/><path class="f" d="M16.13,58c-.07-.41,0-.87-.4-1.16a4,4,0,0,1,3.18-1.8,4.08,4.08,0,0,1,1.93-.16H54.17a6,6,0,0,0,1.74-.15c19.43,0,38.86,0,58.29,0a1.58,1.58,0,0,1,1,.29c.29.83-.28,1-.88,1.24a12,12,0,0,1-2.32.11c-18.7,0-37.41.07-56.12,0-11.14-.05-22.28,0-33.42-.05a22.94,22.94,0,0,0-2.49.06C18.47,56.38,17.52,57.72,16.13,58Z"/><path class="g" d="M24.27,174,25,172.7a37.11,37.11,0,0,1,6.33-7.37.68.68,0,0,1,.81-.14c0,3.82-.87,7.58-.75,11.41-2.19,0-4.38,0-6.57,0a4,4,0,0,1-2.65-.79C22.72,175,23.77,174.85,24.27,174Z"/><path class="h" d="M55.75,55.06H54.41c-.12,0-.18-.08-.16-.16s0-.12.07-.12l1.45-.41h57.92c3.24,0,4.63,1.08,5.41,4.27.12.5.41.59.82.76,2.29,1,3.67,2.41,3.53,5.26-.23,4.75,0,9.52-.08,14.29a3.64,3.64,0,0,0,1.12,2.84c2.75,2.79,5.55,5.53,8.24,8.4a69.21,69.21,0,0,0,5.07,5.21,4.82,4.82,0,0,1,1.33,1.88.6.6,0,0,1-.44.19c-.55-.18-.89-.73-1.48-.85-2.84-2.88-5.63-5.79-8.3-8.83a41.57,41.57,0,0,0-3.59-3.68,5.35,5.35,0,0,1-1.2-1.53A4,4,0,0,1,123,79.38c.06-5,0-9.95,0-14.92,0-1.61-.26-3.09-2.08-3.68-1.64-.32-2.91-1-3-2.92a1.41,1.41,0,0,0-1-1.29c-.74-.29-1.48-.57-1.68-1.47l-.68,0a2.85,2.85,0,0,0-1.58-.17H57.32A2.91,2.91,0,0,0,55.75,55.06Z"/><path class="i" d="M104.43,167.32c.41-1,0-2.28.74-3.26,2,.67,2.23,2.65,3.06,4.17.22.4-.33.83-.77,1.05a4.72,4.72,0,0,0-1.53.82,2.43,2.43,0,0,1-.38.33,13.1,13.1,0,0,0-1.5.85c-2.62,1.29-5.15,2.75-7.72,4.16a6.14,6.14,0,0,1-2.34.83h-.3a4.27,4.27,0,0,0-2.49.35h-.41c-.23-.19-.52-.36-.34-.75a.27.27,0,0,1,.39.05l1.43-1.07a7.49,7.49,0,0,1,3-1.48c1.69-.49,2.92-1.88,4.47-2.73a21.79,21.79,0,0,1,3.63-1.78C104.1,168.61,104.65,168.24,104.43,167.32Z"/><path class="j" d="M106.22,170.18c.37,2.49,2,4.35,3.21,6.39h-8.94a4.29,4.29,0,0,1,1.85-3.35c.81-.52,1.16-1.46,1.88-2.06.41-.35.87-.64,1.28-1h0A.51.51,0,0,1,106.22,170.18Z"/><path class="k" d="M102.64,173.4c-1.14.76-1.39,2.14-2.15,3.16-2.17-.08-4.36.45-6.5-.29a6.08,6.08,0,0,1,2.14-1.11c2-.63,3.65-1.93,5.54-2.78.42-.19.88-.68,1.27-.35C103.54,172.52,102.83,173,102.64,173.4Z"/><path class="l" d="M90.53,175.9c.09.23.17.47.26.7H86.57v-6.71a.65.65,0,0,1,.9.3A23.8,23.8,0,0,1,90.53,175.9Z"/><path class="m" d="M54.32,54.77a1.31,1.31,0,0,0,.09.28l-35.5,0c.5-.47,1.13-.3,1.7-.3Q37.47,54.76,54.32,54.77Z"/><path class="n" d="M24.27,174c-.3,1-1.27,1.33-2.07,1.81-.85-.47-1.7-.93-1.47-2.14.16,0,.4,0,.48.16C22.17,175.17,23.2,174.91,24.27,174Z"/><path class="o" d="M20.3,170.19l.11-1.41c.72.71,2,1.05,1.53,2.06s-1-.2-1.52-.39A.37.37,0,0,0,20.3,170.19Z"/><path class="p" d="M18.57,167.69c.26-.06.64.13.75-.2,0-.13-.24-.37-.38-.55a.79.79,0,0,1,1.08,0,1.16,1.16,0,0,1,.34,1.1C19.75,168,19.09,168.21,18.57,167.69Z"/><path class="d" d="M91.2,176.61a1.93,1.93,0,0,1,2.49-.35C92.94,177,92,176.49,91.2,176.61Z"/><path class="q" d="M140.12,112.36c0-1.67.69-2.33,1.88-2.57q8.48-1.74,16.95-3.45c1.82-.37,2.67.21,3.05,2.07q3.08,15.2,6.12,30.39c.42,2.12,0,2.75-2.19,3.19l-16.42,3.36c-1.9.39-2.79-.17-3.18-2.09q-2.34-11.43-4.64-22.87C141.12,117.6,140.6,114.8,140.12,112.36Z"/><path class="r" d="M185.38,105.53c.05.83-.53.85-.94,1-5,1.45-10,2.87-15,4.34-.79.24-1.14.15-1.38-.73s-.2-1.16.69-1.41c5.08-1.43,10.16-2.87,15.21-4.4C185.5,103.82,184.9,105.23,185.38,105.53Z"/><path class="s" d="M124.12,82.57a170.84,170.84,0,0,1,13.26,13.92c.17.16.15.3,0,.41-3.89-1.92-7.79-3.8-11.51-6,.86-.08.76-1.65,1.93-1.24.11-.83,1.15-1.6,0-2.51s-1.85-2.16-3-3A1.54,1.54,0,0,1,124.12,82.57Z"/><path class="t" d="M178.11,118.84c-.48.64-.43,1.9-1.84,1.08-2.61-1.54-5.29-3-8-4.4-.78-.42-1.19-.82-.64-1.79s1.16-.42,1.73-.12c2.62,1.41,5.22,2.84,7.83,4.27C177.64,118.1,178.1,118.27,178.11,118.84Z"/><path class="u" d="M166.2,107.47a1.28,1.28,0,0,1-.87-2c1.45-2.66,2.95-5.3,4.36-8,.43-.84.82-1,1.63-.52s.76.84.35,1.55c-1.53,2.69-3,5.42-4.49,8.12C167,107,166.94,107.52,166.2,107.47Z"/><path class="v" d="M137.34,96.9c0-.13,0-.27,0-.41.59,0,.9.54,1.37.78.1.32.05.49-.34.34Z"/><path class="w" d="M138.41,97.61c.12-.11.23-.23.34-.34h.38c.07.25.26.69.2.72C138.91,98.24,138.65,97.91,138.41,97.61Z"/><path class="x" d="M83.62,138c-2.3.32-4.45-.75-6.72-.68a.79.79,0,0,1-.63-.51c-.13-2.78.83-5.38,1.37-8,.09-.46.21-.93.34-1.38a5.4,5.4,0,0,0,.24-1.65,101.69,101.69,0,0,0,2.55-10.78c.55-2.08.2-4.19.22-6.29,0-.29-.29-.49-.56-.63-4.18-.36-8.37,0-12.55-.16-1,0-2.15.11-2.94-.84a2.66,2.66,0,0,1-.44-1.3c-.19.33-.11.71-.3,1-.67,1.28-1.89,1.06-3,1.09-2.52,0-2.56,0-3,2.5A44.18,44.18,0,0,0,58,126.78a11.92,11.92,0,0,0,2,4.72,4.11,4.11,0,0,1,.26.82,3.36,3.36,0,0,1,.12,1.51c-.31.7-.78,1.26-1.62,1.12-4.14-.68-8.31-.16-12.47-.32a33.31,33.31,0,0,1-3.74-.13c-2.11-1.19-3.05-3.28-3.86-5.37a29.3,29.3,0,0,1-1.92-13.44c.6-6.51,2.36-12.63,6.63-17.88,3.1-3.8,6.57-7,11.17-8.82a24.27,24.27,0,0,1,14.72-1.47,43.22,43.22,0,0,1,9.26,2.94c.39.18.66.5,1,.68,1.63.31,2.45,1.77,3.73,2.58a8.25,8.25,0,0,1,1.39,1.73c2.24,3.5,2.18,7.41,2,11.33a37.82,37.82,0,0,1-.83,5.6,10.41,10.41,0,0,0-.22,3.69c-.31,3.39.18,6.75.3,10.13-.33,2.72,1.15,5.29.67,8A4.07,4.07,0,0,1,83.62,138Z"/><path class="y" d="M20,166.92l-1.08,0c-2.54-.94-2.86-1.4-2.86-4.16V60c0-.65,0-1.31.05-2,.91-.89,1.7-2,3.18-1.89A3,3,0,0,1,20.89,56q15.72,0,31.44,0c.6,0,1.41-.36,1.75.43s-.24,1.24-.57,1.79a5.93,5.93,0,0,1-1.77,2,1.2,1.2,0,0,1-1.32-.07c-8.64,0-17.28-.07-25.92,0-2.59,0-4.13,1.71-4.13,4.33V164.86A3.42,3.42,0,0,1,20,166.92Z"/><path class="z" d="M50.42,60.13,51.49,60a5.64,5.64,0,0,1,2.78-.52H115a5.12,5.12,0,0,1,2.45.34.48.48,0,0,1,.23.6,4.27,4.27,0,0,1-2.44.36h-59l0,.36h1.72q27.89,0,55.78,0c.45,0,1.52-.68,1.44.68a2.68,2.68,0,0,1-2.18.53H56.2a4.24,4.24,0,0,1-2.56-.53c-.56-.52-1.15-.94-2-.51.05.75.91.28,1,.93-.08.06-.19.22-.32.24C50.46,62.79,50.7,61.24,50.42,60.13Z"/><path class="aa" d="M53.64,61.87h61.52c.51.06,1.09-.17,1.49.35-1.21,1.39-2.76.72-4.19.72q-18.58,0-37.18,0c-6.25,0-12.51,0-18.77,0a11.94,11.94,0,0,1-2.8-.44C53.29,62.42,53.38,62.12,53.64,61.87Z"/><path class="ab" d="M79.52,91.14c-2.62-.83-5-2.17-7.75-2.8-3.91-.9-7.72-1.48-11.81-.63a25.68,25.68,0,0,0-10.41,4.44,20.21,20.21,0,0,0-5.49,5.71c-.88,1.45-2.26,2.79-3.22,4.33-2,3.17-2.7,6.71-3.35,10.32-.37,2.1-.93,4.18-.64,6.3.75,5.44,1.43,10.93,5.34,15.27,1,.45,2.05.88,2.35,2.13a.7.7,0,0,1-.23.44l-.39-.07c-1.3-.25-2-1.34-2.82-2.15a3.47,3.47,0,0,1-.29-.38,9.83,9.83,0,0,0-.88-1.16c-.1-.13-.19-.27-.28-.41-.81-1.93-1.85-3.78-2.12-5.91l0-.37c-.76-1.08-.63-2.37-.83-3.58-.09-.5.08-1-.16-1.53-.31-6.25.38-12.32,3.17-18A29.63,29.63,0,0,1,49.3,91.57c7.29-5.13,15.2-6.18,23.65-3.46a29.55,29.55,0,0,1,5.53,2C79,90.33,79.46,90.5,79.52,91.14Z"/><path class="ac" d="M85.52,112.3c1.18-5.79,1.79-11.54-1.18-17a.37.37,0,0,1,.07-.51,10.43,10.43,0,0,1,2.48,7.18c.06,2.37.45,4.85-.09,7.08a39.48,39.48,0,0,0-.75,9.28,46.38,46.38,0,0,0,.53,8.76c.4,2.21,1,4.5.58,7A5.1,5.1,0,0,1,85,137.67c.12.15.19.3.25.29,4.37-.55,5.07,3.12,6.65,5.77.11.1.15.19.1.27s-.08.13-.11.13a3.32,3.32,0,0,1-1.28-1.65,6.27,6.27,0,0,0-6.26-4.14c-.25,0-.49-.26-.74-.39,1.29-.9,2.51-1.86,2.83-3.54.23-2.76-.87-5.4-.78-8.15a78.84,78.84,0,0,1-.52-10C85.6,115,84.94,113.59,85.52,112.3Z"/><path class="ad" d="M28.23,143.37l-5,4.33c-.1-.64,1.06-1.36-.23-2,2.19.48,3-1.43,4.22-2.37a45.76,45.76,0,0,0,5.46-5.5c.4-.45.57-.74,1.2-.58,1.47.36,2.75-.46,4.11-.74.76-.15.56-.8.6-1.3.12-1.46-.51-2.92,0-4.38,1,.11.73,1.41,1.53,1.73h0A3,3,0,0,0,41.18,134h0c.29,1.09,1.87,1.37,1.74,2.73a9.94,9.94,0,0,1-4.77,1c-3.59-.17-5.72,2.09-8,4.09C29.49,142.34,28.87,142.86,28.23,143.37Z"/><path class="ae" d="M91.9,144.13v-.4c.84.87,2.16,1.35,2.24,2.82,0,.12.31.33.36.31,1.91-1.19,1.35.73,1.43,1.29.39,2.6,2.33,4.31,3.59,6.37,1.83,3,4,5.68,6.11,8.5.3.41.38,1.25,1.27.67.29-.18.41.18.33.39-.47,1.33.51,2.24,1,3.21,1,2,1,2.14-1.21,2.57a5.26,5.26,0,0,0-.83.32h-.73c.07-.1.13-.2.2-.29.59-.82,2.41-.53,2.16-1.92-.17-1-1.07-1.8-1.68-2.67-.3-.44-.66-.82-1-1.23-2.23-3.67-4.65-7.21-7.19-10.67a4.93,4.93,0,0,1-1.89-2.45c-.37-1-1.3-1.61-1.65-2.61Z"/><path class="af" d="M117.67,60.44l0-.41c-.56-1.1-.7-2.39-1.5-3.37.09-.46.55-.31.8-.51a1.46,1.46,0,0,1,1.37,1.42,3.42,3.42,0,0,0,2.6,3.21C119.81,60.91,118.81,60,117.67,60.44Z"/><path class="ag" d="M40.14,132.59c-1-.15-.84-1.31-1.53-1.73-.37-1.43-1.56-2.65-1.08-4.29A48.63,48.63,0,0,0,40.14,132.59Z"/><path class="ah" d="M36.5,121.09l1,5.11c-1.15-.79-.69-2.1-1-3.16A7.07,7.07,0,0,1,36.5,121.09Z"/><path class="ai" d="M84.41,94.75c0,.17,0,.34-.07.51a4.29,4.29,0,0,1-1.09-1.54A1.85,1.85,0,0,1,84.41,94.75Z"/><path class="aj" d="M54.7,143l-1.2-3.16c1.24-1.57,3-.79,4.56-1a.74.74,0,0,1,.44.34,5.84,5.84,0,0,0,3.23,4.94c2.08,1.22,3.9.27,5.66-.74A4.93,4.93,0,0,0,70,138.19a3,3,0,0,1,.33-2.08,2.7,2.7,0,0,1,3.51.53,3.5,3.5,0,0,1,0,2.1c-1.68,8.84-3.24,17.7-5,26.53a4.75,4.75,0,0,1-.16.82,8.73,8.73,0,0,0-.36,2c0,.17-.07.33-.11.5-.11.34-.13.71-.27,1-.53,1.19-.75.25-1-.16h0a2,2,0,0,1-.71-1.43l-.77-1.8c-2-2.58-2.89-5.69-4.29-8.55-1.71-3.52-3.27-7.11-4.87-10.68a2.54,2.54,0,0,1-.38-1.52l-.12-.34C55,144.61,55.19,143.68,54.7,143Z"/><path class="ak" d="M58.43,139.16c-1.6.54-3.37-.1-4.93.72-.59-.74-1.47-.63-2.26-.75a17,17,0,0,1-5.52-1.7c-.22-.67-1.11-.58-1.38-1.2l-2.15-2.15c4.75,0,9.49,0,14.24,0a4.41,4.41,0,0,1,2.24.3c.88.48,1.15-.37,1.41-1,1.61.06,1.93,1.29,2.16,2.5a2.07,2.07,0,0,1-1.51,2.46c-.61.23-1.13.61-1.74.83A1,1,0,0,1,58.43,139.16Z"/><path class="al" d="M55.83,145.5q4.16,8.91,8.29,17.83c.44,1,.83,1.95,1.25,2.92-.31.19-1-1.1-1.06.32a25.16,25.16,0,0,0-.3,3.26c-.71.1-.7-.54-.87-.92-3-6.57-5.77-13.28-8.86-19.83a4.17,4.17,0,0,1-.64-3.2C54.5,146.5,55.12,145.75,55.83,145.5Z"/><path class="al" d="M68.4,165.54l3.6-19.7c.57-3.07,1.16-6.14,1.74-9.22,1-.67,1.91-.22,2.79.32l.37.33c-1.45.81-1.15,2-.73,3.24a1.83,1.83,0,0,0-.84,1.49c-.49,3.4-1.84,6.63-1.94,10.09,0,.74-.53,1.32-.59,2s-.24,1.56.51,2.12c.32,1.82-.7,3.34-1.07,5-.8-1-.37-2.14-.44-3.24a40.09,40.09,0,0,1-.63,5.34c-.09.45,0,1-.54,1.2-.58-.08-.37-.82-.8-1C69.37,164.23,70,165.7,68.4,165.54Z"/><path class="am" d="M32.17,165.19c-2.5,1.84-4.12,4.49-6.24,6.68-.28.3-.6.55-.9.83-1.49-1.69.5-2.62.93-3.83,1.41-4,3.48-7.78,5.27-11.65a11.71,11.71,0,0,1,1.44-2.9C32.48,158,32.75,161.59,32.17,165.19Z"/><path class="an" d="M53.64,145.88c1.39,4.3,3.6,8.26,5.23,12.47,1.52,3.91,3.41,7.66,5.14,11.48.31.83,1.13,1.59.3,2.73-.94-1.07-1.13-2.35-1.63-3.51-1-2.27-2.2-4.45-3.18-6.75-1.64-3.86-3.31-7.73-5.16-11.49-1.14-2.31-1.62-4.92-3.27-7a2.09,2.09,0,0,1-.27-1.54c0-.23.06-.53.36-.51s.5.2.53.36C52,143.57,53.16,144.54,53.64,145.88Z"/><path class="ao" d="M104.43,167.32c1.28.55.58,1.47,0,1.64a18.69,18.69,0,0,0-8.2,4.85c-1.54-.48-2.58.95-4,1-.55-.74-.89-1.09.46-1.59a60.45,60.45,0,0,0,7.61-3.67C101.7,168.83,102.89,167.74,104.43,167.32Z"/><path class="ap" d="M90.53,175.9c-1.63-1.8-2.12-4.35-4-6v-7.11c2.06,4.4,3,8.81,4.27,13.12h-.31Z"/><path class="aq" d="M73.31,156.24c-1.81-.08-1.22-1.6-1-2.24.88-2.29.59-4.78,1.37-7,.63-1.79.75-3.68,1.28-5.48.17-.57.13-1.46,1.19-1a123.21,123.21,0,0,1-2.78,13.6A8.85,8.85,0,0,0,73.31,156.24Z"/><path class="aq" d="M70.45,164.46a14.68,14.68,0,0,0,.72-4.84,5,5,0,0,1,.16-1.75c.17-.44.45-1.25,1-1.08.94.28,0,.81,0,1.25l-.06,3.21a16.64,16.64,0,0,0-1.43,6c0,1.73-1,3.3-.83,5.07,0,.33-.31,1.5-1.32.75a8,8,0,0,1-.07-2.13,3.61,3.61,0,0,1,.13-.81,13.77,13.77,0,0,0,.28-2.21c.17-.73.18-1.49.33-2.22S69.53,164.36,70.45,164.46Z"/><path class="ar" d="M28.23,143.37a40.09,40.09,0,0,1,5.12-4.8c.94-.82,2.29-.78,3.52-.95,2-.27,4-.68,6.05-1,.36-.23.5.06.68.28-1.75,1-3.73,1-5.62,1.1a9.87,9.87,0,0,0-5.43,2.24C31.09,141.24,30.15,143,28.23,143.37Z"/><path class="al" d="M69,170.9c-.12.72.29,1.52-.36,2.14-1.55-.15-1.66-1.33-1.79-2.5h.25C67.76,170.62,68.45,170.46,69,170.9Z"/><path class="as" d="M96.24,150.87A12.56,12.56,0,0,1,98,153.39c-1.81.09-2.12-1.08-2.13-2.51C96,150.71,96.1,150.7,96.24,150.87Z"/><path class="ar" d="M40.36,138.19c.39.22,1.07.12,1.08.87,0,.39-.14.73-.58.66a1.23,1.23,0,0,1-1.11-1.14C39.72,138.24,40,138.07,40.36,138.19Z"/><path class="at" d="M43.6,136.87l-.68-.28c-.4-1-1.77-1.3-1.76-2.56l2.76,2.55Z"/><path class="au" d="M96.24,150.87h-.39c-.4-.89-1.68-1.29-1.41-2.55A5.43,5.43,0,0,1,96.24,150.87Z"/><path class="al" d="M54.7,143a5.61,5.61,0,0,1,1,2.12C54.44,144.9,54.66,143.93,54.7,143Z"/><path class="al" d="M66.86,169.49c.24-.05.48,1,.72,0,.09-.39,0-.81.36-1.12.76,1.79.55,2.21-1.07,2.15h0Z"/><path class="al" d="M66.14,168.05a2.47,2.47,0,0,1,.71,1.43C66.05,169.28,65.42,169,66.14,168.05Z"/><path class="x" d="M44.34,136.23c.46.4,1.48.16,1.38,1.2a2.55,2.55,0,0,1-1.41-.78Z"/><path class="h" d="M116.19,56.52c1.36.81,1.59,2.08,1.46,3.51l-52,0c-4.71,0-9.42,0-14.13,0,.88-1.11,2.57-2.56,2.16-3.43-.54-1.11-2.57-.41-3.95-.42-10.13-.05-20.26,0-30.39,0,.62-.55,1.37-.29,2.06-.29q46.5,0,93,0C114.94,56.19,115.87,55.56,116.19,56.52Z"/><path class="av" d="M55.75,55.06c.56-.5,1.24-.3,1.88-.3h55c.63,0,1.32-.21,1.87.31Z"/><path class="av" d="M116.19,56.52l-1.8-.7c.45,0,.76-.22.77-.72a5,5,0,0,0,1.79,1A.8.8,0,0,1,116.19,56.52Z"/><path class="aw" d="M102.64,173.4l.26-1.36c-1.71.92-3.29,1.69-4.77,2.6a2.9,2.9,0,0,1-2,.52,74.49,74.49,0,0,1,7.9-4.3c.38-.13.48,0,.41.4C103.86,172,103.56,173,102.64,173.4Z"/><path class="ax" d="M104.44,171.26l-.41-.4a2.15,2.15,0,0,1,1.47-.69A2.13,2.13,0,0,1,104.44,171.26Z"/><path class="y" d="M147.68,130.16c-1.21-5.79-2.4-11.59-3.64-17.37-.24-1.13.35-1.57,1.24-1.75,4.13-.81,8.26-1.58,12.39-2.37,2.38-.3,2.79-.06,3.07,2.36a83.76,83.76,0,0,0,1.75,9.53c1.14,4.86,1.81,9.82,3.19,14.63.18.64,0,1.29.18,1.94s-.34,1.07-1,1.19c-3.59.7-7.14,1.6-10.74,2.18-.83.13-1.58.51-2.43.56-1.1.06-1.75-.17-1.95-1.46A84.94,84.94,0,0,0,147.68,130.16Z"/><path class="ay" d="M147.68,130.16c1.32,1.21.85,3,1.3,4.49a15.19,15.19,0,0,1,1.05,4.77c0,1.46,1,1.64,2.1,1.35a96.29,96.29,0,0,1,10.22-2.06c.92-.15,1.67-.82,2.69-.78.63,0,.51-.67.56-1.13.18-1.58-.48-3.07-.83-4.52-.74-3.08-1-6.3-2-9.28-1.12-3.37-.69-7-2.33-10.29-.13-.26.1-.69.09-1,0-2.17-.75-2.92-2.91-3,2.29-.77,2.69-.6,3.15,1.69,1.79,8.79,3.51,17.58,5.32,26.36a1.39,1.39,0,0,1-1.24,1.91c-4.48.91-9,1.77-13.46,2.69-.89.19-1.62.12-1.81-.85C148.94,137,148.32,133.6,147.68,130.16Z"/><path class="az" d="M65,106.2c.21,1.09,1,1.09,1.89,1.09,4.77,0,9.53,0,14.29.07a31.82,31.82,0,0,1,0,7.74,57.41,57.41,0,0,1-2.53,10.66,10.09,10.09,0,0,1-.6,1.7,8.94,8.94,0,0,1-8.31,5.66,17,17,0,0,1-11.44-5,2.74,2.74,0,0,1-.67-.81c-1.28-4.19-1-8.46-.61-12.72.17-1.94.63-3.86.91-5.79.15-1.06.58-1.59,1.75-1.45.87.11,1.78-.07,2.66,0A1.44,1.44,0,0,0,64,106.18.66.66,0,0,1,65,106.2Z"/><path class="ba" d="M69.79,132.68c3.84-.12,6.27-2.32,8.1-5.43a.31.31,0,0,1,.44,0c-.54,2.75-1.09,5.5-1.63,8.25-.09.46-.11.93-.17,1.4a10.09,10.09,0,0,1-2.79-.32c-1.09-.19-2.13-.76-3.29-.39-1.2-.63-.64-1.86-1-2.8A.81.81,0,0,1,69.79,132.68Z"/><path class="bb" d="M69.79,132.68l0,.72a9.1,9.1,0,0,1,.06,2.39c-.73.79-1.65.54-2.51.41a18.71,18.71,0,0,1-4.87-1.72c-.8-.36-1.29-1.16-2.1-1.52a1.26,1.26,0,0,1-.63-.76l-.09-.52c-.26-1.4-1.67-2.41-1.38-4a21.14,21.14,0,0,0,8.87,4.78A16.87,16.87,0,0,0,69.79,132.68Z"/><path class="bc" d="M59.76,132.2l.63.45a13.49,13.49,0,0,1,2.17,2,2.49,2.49,0,0,1-.33,3.27c-1,.86-2,1.94-3.57,1.17a11.38,11.38,0,0,1,1.12-.85c2.73-1.48,2.81-2.81.3-4.84Z"/><path class="bd" d="M85.67,126.26c.42,2.71,1.29,5.36.78,8.15C86.47,131.67,84.93,129.08,85.67,126.26Z"/><path class="be" d="M81.17,115.1c0-2.58,0-5.16,0-7.74A16,16,0,0,1,81.17,115.1Z"/><path class="bf" d="M58.29,127.68c.18,1.43,1.57,2.45,1.38,4a9.32,9.32,0,0,1-2.05-4.39Z"/><path class="bg" d="M85.52,112.3a13.13,13.13,0,0,1-.37,4C85.26,115,84.69,113.57,85.52,112.3Z"/><path class="bh" d="M65,106.2l-1,0c0-.45-.06-.91.46-1.17C64.86,105.31,64.83,105.79,65,106.2Z"/><path class="bi" d="M78.33,127.29l-.44,0,.75-1.49C78.65,126.29,78.84,126.86,78.33,127.29Z"/><path class="ag" d="M41.18,134c-1,0-1-.72-1.06-1.45A3.19,3.19,0,0,1,41.18,134Z"/><path class="bj" d="M58.66,139.05A4.63,4.63,0,0,0,61,138.3c1.58-.77,1.83-1.69,1.15-3.72a.38.38,0,0,1,.07-.53c1.19,0,2.06.84,3.14,1.15a11.92,11.92,0,0,0,4.35.66,6.3,6.3,0,0,1-.46,6.14,7.71,7.71,0,0,1-5,2.77c-2.44.28-5.58-2.4-5.84-4.89a1.74,1.74,0,0,0-.13-.51.33.33,0,0,0,.09-.21A.23.23,0,0,0,58.66,139.05Z"/><path class="bk" d="M58.34,139.37c1.31,3.56,3.76,5.37,6.65,4.91,3.86-.61,5.88-4.2,4.73-8.42l.09-2.46c.63.85,0,2,.64,2.83,0,1.07,0,2.15,0,3.22a5.27,5.27,0,0,1-3.82,4.92c-.84.16-1.4.76-2.28.83A5.61,5.61,0,0,1,58.34,139.37Z"/><path class="d" d="M66.87,170.54c1.74,0,.85-1.37,1.07-2.15h0a.23.23,0,0,1,.37,0c.07.23,0-.09.1.14a2.45,2.45,0,0,1,.06.6.92.92,0,0,0-.12-.69,3.74,3.74,0,0,1-.07-2.22l.12-.71c1.11-.52.78-1.66,1.09-2.52.92.09,1.06.69,1,1.44-.8.36-.73,1.08-.71,1.76a3.18,3.18,0,0,1-.36,1.82c-.47.66.09,1.48-.36,2.15v.71A2.06,2.06,0,0,1,66.87,170.54Z"/><path class="al" d="M68.3,168.4h-.36a4,4,0,0,1,.34-2.14A4.73,4.73,0,0,1,68.3,168.4Z"/><path class="al" d="M69,170.19c.11-.72-.29-1.52.36-2.15C69.26,168.76,69.67,169.56,69,170.19Z"/><path class="bl" d="M62.23,134.05l-.07.53-1.77-1.93C61.32,132.7,61.74,133.42,62.23,134.05Z"/><path class="al" d="M68.24,168.19c.47.74.51,1.16.27,1.67C68.12,169.38,68.4,168.86,68.24,168.19Z"/></svg>