<svg xmlns="http://www.w3.org/2000/svg" viewBox="0 0 201.76 202.04"><defs><style>.a{fill:#eaeaea;}.b{fill:#f4b078;}.c{fill:#f89646;}.d{fill:#faecdb;}.e{fill:#ef7d28;}.f{fill:#d4eef2;}.g{fill:#f6974b;}.h{fill:#6b9fed;}.i{fill:#f7ab6f;}.j{fill:#edf5f0;}.k{fill:#2e4a8e;}.l{fill:#f9ecd7;}.m{fill:#f2f5f0;}.n{fill:#d8671b;}.o{fill:#9195b3;}.p{fill:#e8fbfc;}.q{fill:#fbebd9;}.r{fill:#bcd7f8;}.s{fill:#f79747;}.t{fill:#ed7f2c;}.u{fill:#cedfef;}.v{fill:#daebf1;}.w{fill:#d38943;}.x{fill:#c9d8e6;}.y{fill:#e99f5c;}.z{fill:#ed7e2b;}.aa{fill:#fdb97d;}.ab{fill:#fba965;}.ac{fill:#f89849;}.ad{fill:#efccae;}.ae{fill:#f6dec8;}.af{fill:#edcdb0;}.ag{fill:#dfeafd;}.ah{fill:#c9e0f9;}.ai{fill:#ec802d;}.aj{fill:#beddef;}.ak{fill:#d68642;}.al{fill:#fafef9;}.am{fill:#eda365;}.an{fill:#f6e1c9;}.ao{fill:#9cc2f5;}.ap{fill:#7592c9;}.aq{fill:#afccfb;}.ar{fill:#6ca1df;}.as{fill:#f8fcfe;}.at{fill:#f7974b;}.au{fill:#b9c7f3;}.av{fill:#f89847;}.aw{fill:#b3c5f2;}.ax{fill:#ea9a51;}.ay{fill:#bdcef4;}.az{fill:#b3c4f2;}.ba{fill:#b3c4f1;}.bb{fill:#b1c4f2;}.bc{fill:#b8c9f1;}.bd{fill:#b9c9f1;}.be{fill:#ee9850;}.bf{fill:#b8c5f0;}.bg{fill:#b8c6f1;}.bh{fill:#adc0e7;}.bi{fill:#f9fdfe;}.bj{fill:#afc6f0;}.bk{fill:#f6fcfc;}.bl{fill:#ccd3e7;}.bm{fill:#c8cee8;}.bn{fill:#cad4e3;}.bo{fill:#c9d1e2;}.bp{fill:#f4fcfd;}.bq{fill:#d5dff4;}.br{fill:#c9d3e5;}.bs{fill:#bfc8e1;}.bt{fill:#d0d7ec;}.bu{fill:#a7c2e0;}.bv{fill:#c1c8de;}.bw{fill:#d0d5eb;}.bx{fill:#cbd4e2;}.by{fill:#dfdef7;}.bz{fill:#c5d1e5;}.ca{fill:#f6e1cb;}.cb{fill:#eecbad;}.cc{fill:#eecbac;}.cd{fill:#ebcdb2;}.ce{fill:#e8ceb5;}.cf{fill:#cae2f7;}.cg{fill:#fca258;}.ch{fill:#d0e3fe;}.ci{fill:#b4cbec;}.cj{fill:#cee1fb;}.ck{fill:#f6af70;}.cl{fill:#bfd6fc;}.cm{fill:#cfe3fd;}.cn{fill:#bed7fb;}.co{fill:#c5dafc;}.cp{fill:#c7dafc;}.cq{fill:#bcdafe;}.cr{fill:#c2d8fc;}.cs{fill:#fcfefd;}.ct{fill:#ced7e5;}.cu{fill:#c9d6e8;}.cv{fill:#c8d1e8;}.cw{fill:#cfd6e8;}.cx{fill:#bbc7e1;}.cy{fill:#c2cedd;}.cz{fill:#bbc6dc;}.da{fill:#d0d6e9;}.db{fill:#b8c5da;}.dc{fill:#cbd4e6;}.dd{fill:#b9c4dd;}.de{fill:#febd85;}.df{fill:#dbdcf2;}.dg{fill:#fafcfe;}.dh{fill:#dbdff1;}.di{fill:#d3dcf3;}.dj{fill:#c2ccea;}.dk{fill:#dadde9;}.dl{fill:none;}</style></defs><path class="a" d="M23.86,100.18a78.92,78.92,0,0,1,16.46-48A78.16,78.16,0,0,1,73.45,26.65a80.13,80.13,0,0,1,23.72-5.81,79.07,79.07,0,0,1,49.4,11.62A80,80,0,0,1,184.14,89.9a81.36,81.36,0,0,1,.65,15.89,79,79,0,0,1-4.62,22.39,83.65,83.65,0,0,1-11.33,21,58.2,58.2,0,0,1-9.23,10.16c-.85-.95-.54-2.12-.55-3.2q0-35,0-70.08c0-1,.28-2-.52-2.81A2.43,2.43,0,0,0,157,83c-20.42.1-40.83,0-61.25,0-2,0-2.18.14-2.18,2.51q0,17.91,0,35.84a5.9,5.9,0,0,1-.46,3.26c-1.65,1.09-3.5.46-5.25.62a14.87,14.87,0,0,1-2.11,0c-2.35,0-4.7,0-7,0-2.85,0-3.3.57-2.82,3.41a4.09,4.09,0,0,0,.24.75,2.52,2.52,0,0,1,.18.65,2.05,2.05,0,0,1,0,.7,7.63,7.63,0,0,1-.34,1,7.26,7.26,0,0,0-.18,2.54q0,17,0,33.91a6,6,0,0,1-.33,2.9c-1.53,1.07-3.16.76-4.79.3-.63-1,.27-1.25.77-1.6a2.73,2.73,0,0,0,1.15-3.21c-.38-1.4-1.51-1.61-2.75-1.54-2.3.52-4.14,2-6.34,2.81-1,.38-2,1.53-3.2.27A5.6,5.6,0,0,1,60,166q0-17.34,0-34.7c0-1.22-.21-2.53,1.26-3.24.55-.26.31-.78.08-1.2a6.24,6.24,0,0,0-2.17-2.22,5.44,5.44,0,0,1-.76-3.2c0-2.3,0-4.6,0-6.9-.06-2.67-1-3.81-3.62-4.7-1.31-.07-1.83-.84-1.88-2.06a27.27,27.27,0,0,0-.22-3.73c-.44-2.52-1.56-3.6-4.1-3.61-7.54,0-15.09-.07-22.63,0C25.24,100.43,24.5,100.69,23.86,100.18Z"/><path class="b" d="M43.21,177.5c-5.16.35-10.34.11-15.51.11-.35,0-.75.34-1.08-.05-1.65-.56-1.74-1.89-1.74-3.35,0-12.43,0-24.86,0-37.28,0-1.76-.58-3.48-.09-5.29.3-1.1.72-1.78,1.86-1.94,5-.32,10-.13,15-.12a2.57,2.57,0,0,1,1.66.51,4.51,4.51,0,0,1,.53,2.85q0,20.88,0,41.75A3.84,3.84,0,0,1,43.21,177.5Z"/><path class="c" d="M43.21,177.5q0-23.66,0-47.31c.74-.74,1.69-.6,2.58-.61,3.18,0,6.37,0,9.55,0a12,12,0,0,0,3.27-.42c1.31.21,1.08,1.49,1.57,2.28,0,10.4,0,20.78,0,31.17v4.06a3.88,3.88,0,0,0,.49,2.31,1,1,0,0,1,0,.57c-.65,1.11-1.9,1.29-2.9,1.88,2.54-.8,4.73-2.37,7.21-3.29a1.51,1.51,0,0,1,.6.09c1.58,1.46,1.72,2.24.85,4.53a1.51,1.51,0,0,1-1.28.82c-1.18.55-2.37,1.1-3.54,1.67-.29.14-.74.37-.75.58-.21,2.52-2.1,1.73-3.47,1.74C52.66,177.59,47.94,177.53,43.21,177.5Z"/><path class="d" d="M23.86,100.18a10.75,10.75,0,0,1,3.3-.4c7.1,0,14.2,0,21.3,0,3.17,0,4.28,1,4.83,4.2a17.2,17.2,0,0,1,.15,3.72c-.06,1.24.44,1.69,1.6,1.56.33.25.67.54.17.88-1,.73-4.73.48-5.85-.35a.82.82,0,0,1,.1-.57c.7-.28,1.38.19,2.06,0-1.16.11-1.48-.69-1.87-1.6-.89-2.06-1.81-2.63-3.38-2.29a7.53,7.53,0,0,0-5.34,2c-1.17,2-3,2.34-5,1.91a2.24,2.24,0,0,1-1.4-1.26c-1.81-3.13-5.05-3.43-7.36-.72a4.36,4.36,0,0,0-.21,4.13c1.09,3.11.6,6.31.54,9.48a3.35,3.35,0,0,1-1.6,2.77c-1.15.34-2.42.35-2.07-1.24,1.1-5,0-10,.3-14.62-.69,4.09,1.31,8.82-.65,13.59-.77-.89-.45-1.56-.55-2.07-.53.84,1,2.18-.6,2.93v-17c.81-.07.57.57.57.94,0,2.74,0,5.47,0,7.49.37-3.65-.52-8,.18-12.4A1.28,1.28,0,0,1,23.86,100.18Z"/><path class="e" d="M24.66,177.52c-4.8.25-4.8.25-4.8-4.5q0-20.36,0-40.69c0-.72.05-1.44.08-2.16,1.37-.74,3.1-.66,4.26-1.94.32-.35.66.1.84.46.16,2.61-.07,5.21-.05,7.82.11,12.85.06,25.7,0,38.55C25,175.89,25.3,176.78,24.66,177.52Z"/><path class="f" d="M128.43,177.91a81.61,81.61,0,0,1-28.66,3.5,65.66,65.66,0,0,1-19.88-3.86c.92-.86,2.07-.56,3.14-.62,3.13,0,6.27.16,9.4-.06a2.66,2.66,0,0,1,.61-.13c2.81-.07,5.6.44,8.41.26.4,0,.8-.12,1.21-.13a2.86,2.86,0,0,1,.65.06c2.83.1,5.67,0,8.51,0,2-.08,3.92.07,5.88-.16a2.8,2.8,0,0,1,.71,0c2.66.31,5.33,0,8,.16C127.15,177,128.17,176.7,128.43,177.91Z"/><path class="g" d="M60.55,169.24a4.06,4.06,0,0,1-.77-2,9.93,9.93,0,0,0,0-4.34V130.57c-.47-.47-.14-1.06-.22-1.58a1.83,1.83,0,0,1,.46-.88c1.22-1.26.14-1.83-.79-2.28a5.24,5.24,0,0,0-2.34-.19c-10.32,0-20.64,0-31,0a4.85,4.85,0,0,0-.93.06c-1,.52-1.52,1.57-2.27,2.37s-1.73,1.37-2.89.57h-3c1.65-2,2.08-4.55,5.07-4.33,1.25-.66,2.6.13,3.87-.29a9.44,9.44,0,0,1,2.6,0q15.14.09,30.28,0a1,1,0,0,1,.7.22c2.16.44,2.42,2.48,3.6,4.2-2.41-.28-2.39,1.08-2.38,2.69,0,12.41,0,24.81,0,37.22A.62.62,0,0,1,60.55,169.24Z"/><path class="h" d="M76,177.43c-2.65,0-5.28-.34-7.94,0-1.73.21-2.81-1.33-2.73-3.45a4.05,4.05,0,0,1,3.07-1.76c2.94.79,5.94.17,8.9.36a1.33,1.33,0,0,1,.69.54C78.75,175.54,78.24,176.65,76,177.43Z"/><path class="i" d="M24.66,177.52q0-24.66,0-49.32a.36.36,0,0,1,.09-.48,2.61,2.61,0,0,1,1.92,2.44c-2.08.56-1.37,2.41-1.41,3.64,0,1.06.2,2.2.2,3.31q0,18.12,0,36.25c0,1.51-.28,3.09,1.17,4.2A3.53,3.53,0,0,1,24.66,177.52Z"/><path class="j" d="M159.22,82.44c.7.72.37,1.62.37,2.44q0,37.25,0,74.5c0,5.24,0,10.47,0,15.71,0,.69.26,1.46-.39,2l-.26-.3a6,6,0,0,1-.38-2.9q0-44.15,0-88.3C158.58,84.53,158.36,83.37,159.22,82.44Z"/><path class="k" d="M76,177.43c1.55-1,2.5-2.26,1.6-4.21,1.23-.93,2.66-.21,4-.5-1.72-.33-3.62.38-5.25-.76a.66.66,0,0,1,.25-.54c1.93-.69,3.91-.24,5.87-.33A3.85,3.85,0,0,1,85.26,173a3.24,3.24,0,0,1,.49,1.77A3.48,3.48,0,0,1,83,177.48l-3.07.07Z"/><path class="l" d="M25.86,124.3a6.93,6.93,0,0,1-4,0,3.32,3.32,0,0,1,.39-2c.92-1.2,0-2.66.74-4.35v2.7c2.26-5-1.05-10.39,1.63-15.35,0,2.58.06,5.17,0,7.75-.09,3.13.38,6.29-.38,9.4-.43,1.73,1,.76,1.58,1A.59.59,0,0,1,25.86,124.3Z"/><path class="m" d="M128.43,177.91c-1.34-.84-2.81-.24-4.21-.38-2-.19-4,.27-6-.26.13-.61.57-.77,1.13-.76,12.43-.06,24.87,0,37.31,0a3.62,3.62,0,0,1,2.61.62h0c-.65.68-1.49.38-2.24.38q-12.63,0-25.25,0A11,11,0,0,0,128.43,177.91Z"/><path class="n" d="M24.68,127.87a1.24,1.24,0,0,1,0,.33,4.24,4.24,0,0,1-4.69,2c0-.52-.07-1-.11-1.56,1.68.42,2.41-.8,3.32-1.83.51-.57.7-1.44,1.52-1.74A1.93,1.93,0,0,1,24.68,127.87Z"/><path class="l" d="M23.06,101.35l1.58,1c-1.51.11-1.59,1-1.58,2a99.58,99.58,0,0,1-.38,11.58c0-2.86,0-5.72,0-8.58,0-.69.27-1.46-.38-2C22.41,104,21.86,102.49,23.06,101.35Z"/><path class="o" d="M68.47,172.41,65.29,174c0-.14-.09-.27-.14-.4l.94-.92c1-.75,2-1.68,3.44-1.61a.73.73,0,0,1,.33.44,1.08,1.08,0,0,1-.1.56A1.14,1.14,0,0,1,68.47,172.41Z"/><path class="p" d="M159.22,177.13c-10.34-.11-20.68.14-31-.11-2.47-.06-5,0-7.45.1-.62,0-1.33.21-1.82-.43-.17-1.61.21-3.5-2.07-4-4.18-.25-8.36-.07-12.54-.09a2.71,2.71,0,0,0-1.3.37c-.27.19-.56.37-.84.54a1.46,1.46,0,0,1-1.31.22,1.16,1.16,0,0,1-.39-.58c-.47-3.28.27-6.53.14-9.81-.44-10.92-.44-21.86-.51-32.79.61-1.06.8-2.31,1.58-3.28,4.83-.77,9.69-.22,14.54-.43,1.54-.06,3.14.44,4.61-.31-6.12-.16-12.22-.23-18.31,0a1.75,1.75,0,0,1-1-.19c-.93-1.16-2.24-1-3.54-1.15-1.69-.12-3.5.6-5-.66,0-13.32,0-26.65,0-40,0-1.75.28-2.28,2.29-2.23,7.8.2,15.62.08,23.43.08,12.41,0,24.82,0,37.22.06,1.13,0,2.26-.81,3.38,0Z"/><path class="q" d="M59.35,124.29l-.15,0-.15,0c-2.13-.09-4.26,0-6.39,0-.53-.87.17-1.3.68-1.75a3.05,3.05,0,0,0,1.23-1.9c.56-2.56.11-3.67-2.1-5.15-2.14-.59-4-.33-5.48,1.54-1.1,1.87-.26,3.46.75,5,1.13,1.74,1.14,1.77-.88,2.37H40.55c-.79,0-1.66.11-2-.82s.63-1.18,1-1.76c.91-1.62,1.26-3.25.13-4.93-1.31-2-3.2-1.87-5.18-1.41a3.43,3.43,0,0,0-1.34,1c-1.12,2-1.15,3.87.51,5.61.44.47.93,1,.54,1.75s-1,.59-1.58.54c-1.67-.12-3.44.43-5-.66-.69-1.2-.12-2.46-.16-3.68-.06-1.84.12-3.69-.05-5.52A4.83,4.83,0,0,1,31,109c1.55-.6,3.13-.22,4.7-.15h1.18c1.3,0,2.84.43,3.15-1.61,0-.16.55-.24.85-.36,1.25,1.66,3.09,1.67,4.91,1.81,1.26.09,2.61-.36,3.75.56.13,1,.88.78,1.5.78,1.34,0,2.68,0,4-.14.31,0,0-.41,0-.64,2.89.92,3.88,2.32,4,5.25C59.09,117.78,58.64,121.06,59.35,124.29Z"/><path class="r" d="M75.57,131l.39-.39a3.15,3.15,0,0,1,2.43-.56c2.3,0,4.6-.15,6.89.12,1.25.47,1,1.56,1,2.51,0,5.84,0,11.68,0,17.52a5.8,5.8,0,0,0,.47,2.48c0,.7-.62.77-1.12.9a6.69,6.69,0,0,0-2.06.64c-1.5,1-2.51,1-3.18-.93a1.55,1.55,0,0,0-2.21-1c-1,.46-.93,1.41-.53,2.23a5.13,5.13,0,0,1,.08,4.86c-.57,1.17-.36,2.59-.39,3.9a1.89,1.89,0,0,0,1.24,1.86c1.26.52,1.29,1.42.69,2.37-.8,1.27-.9,2.92-2.17,3.92-.54,0-1.09.3-1.59-.11a1.62,1.62,0,0,1-.11-.72q0-18.72,0-37.43A4,4,0,0,1,75.57,131Z"/><path class="s" d="M101.68,127.44c-.3,1,.28,2.36-1.27,2.77-2.44,1.16-5,.39-7.54.54-5.33.08-10.64-.64-16-.39a1.28,1.28,0,0,1-.93-.21l-.09-.3c1-1,2.22-.58,3.36-.64,1.31-.07,2.62-.05,3.93,0,1.52,0,2.14-.66,2.08-2.14a4.37,4.37,0,0,1,.22-2.32l7.47-.2c2.28,0,4.56.13,6.83.06,1.26,0,1.8.48,1.88,1.66A1,1,0,0,1,101.68,127.44Z"/><path class="t" d="M85.46,124.74c.65,1.23.32,2.57.33,3.86,0,1.08-.83,1.16-1.67,1.16l-8.25.09c-1.47-1.32-.68-3-.55-4.48.12-1.21,1.5-.68,2.33-.69C80.25,124.64,82.85,124.71,85.46,124.74Z"/><path class="t" d="M69.67,171.26c-1.33.12-2.24,1.31-3.58,1.4.51-1.55.8-3.06-.8-4.21.57-1.72,2.49-1.61,3.57-2.64a.86.86,0,0,0,.56-.93.69.69,0,0,1,.22-.41c1.67-.25,3,.24,3.53,1.95a3.15,3.15,0,0,1-1.87,4c-.29.14-.55.33-.83.5S70,171.4,69.67,171.26Z"/><path class="u" d="M76,130.15l17,0a2.81,2.81,0,0,1,.63,2q0,8.48,0,16.94a3.66,3.66,0,0,1-.35,1.72.58.58,0,0,1-.6.32,3.64,3.64,0,0,1-.87-2.89c.16-4.69.22-9.39.21-14.08,0-3-.06-3-3.11-3.05-1,0-2.11.17-3-.58H76Z"/><path class="v" d="M75.57,131q0,20.1,0,40.21a.23.23,0,0,1-.35,0q0-19.09,0-38.2C75.18,132.31,74.91,131.54,75.57,131Z"/><path class="w" d="M69.64,164.47v.43a1,1,0,0,1-.46.68c-1.68.77-3.13,2-5,2.39-.38,0-.8-.05-.8-.59C65.48,166.45,67.38,165.07,69.64,164.47Z"/><path class="x" d="M75.17,171.2a1.37,1.37,0,0,0,.35,0l.07,0c-.15.91-.91.9-1.52.88-1.47-.06-3,.47-4.38-.52,0-.11,0-.22,0-.33l.8-.33C72,171.52,73.61,171.07,75.17,171.2Z"/><path class="y" d="M63.37,167.38l.75.29a.4.4,0,0,1,0,.54c-1.1.58-2.06,1.64-3.51,1h0c0-.28,0-.56,0-.84C61.65,168.43,62.43,167.67,63.37,167.38Z"/><path class="z" d="M24.68,127.87a7.1,7.1,0,0,0,0-2.83h.78c1.57,2.83,4.13,3,7,3,8.21-.15,16.44-.06,24.65,0,1,0,2.13-.21,3,.62l-.38.39c-.14.12-.16.36-.4.38-1.38.91-2.93.81-4.49.8-3.9,0-7.8,0-11.7,0l-16.54,0C25.94,129.45,25.58,128.43,24.68,127.87Z"/><path class="i" d="M26.18,136.62v36H26V136.54Z"/><path class="aa" d="M60.57,169.24c1.3,0,2.23-1.19,3.53-1.2.45-.24.8-.29.79.39a47,47,0,0,1-7.26,3.65c-.36.16-.79.39-1,0-.37-.63.28-.72.63-.93C58.32,170.45,59.68,170.26,60.57,169.24Z"/><path class="ab" d="M64.89,168.43a.83.83,0,0,0-.79-.39c0-.12,0-.25,0-.37,1.8-.6,3.24-2,5.13-2.38.16-.08.36-.12.41.09s-.17.52-.41.69l-4,2.38Z"/><path class="ac" d="M59.78,162.92a5.22,5.22,0,0,1,0,4.34Z"/><path class="ac" d="M59.38,129.38l.4-.38v1.57c-.34.06-.74.56-1,.09S59.28,129.86,59.38,129.38Z"/><path class="ad" d="M49.52,109.27a35.47,35.47,0,0,1-7.13-.38c-1.16-.26-1.72-.78-1.53-2a6.39,6.39,0,0,1,5.48-2c2.48.67,3.66,2.27,3.18,4.34Z"/><path class="ae" d="M31,109.28c0,.4-.23.47-.59.59a3.65,3.65,0,0,0-2.57,3.74c0,3.41,0,6.83,0,10.24a.29.29,0,0,1,.09.31c0,.09-.07.14-.11.14-.65.07-1.29.44-1.94,0,0-.28,0-.55,0-.83,1.94-3.68,1.38-7.5.66-11.34-.34-1.79-1.68-3.7.54-5.23C28.82,106.91,29.6,108.6,31,109.28Z"/><path class="af" d="M31,109.28c-1.85.09-2.5-1.8-3.95-2.38.58-1.78,2.08-2,3.57-1.94a4.54,4.54,0,0,1,4.25,2.5c.24.51.2,1.14.83,1.41C34.18,109.69,32.54,109.06,31,109.28Z"/><path class="q" d="M49.52,109.27c-.12-2.14-1.54-3.31-3.18-4.34,1.43-.6,2.86,0,3.58,2.17a2.55,2.55,0,0,0,2.81,2A3,3,0,0,1,49.52,109.27Z"/><path class="ag" d="M92.92,151.09q0-10.46,0-20.91l7.51,0a9.45,9.45,0,0,1,.41,3.09c0,5.7-.12,11.41,0,17.11s.49,11.33.35,17c-.06,2.05-.25,4.11-.37,6.16.68,1.24-.37,2-.79,3,.48.41,1.55-.15,1.57,1l-8.29-.39a1.33,1.33,0,0,1-.62-1.86,7.44,7.44,0,0,0,4.55-3.72,2.48,2.48,0,0,0,.48-3,11.82,11.82,0,0,0,.24-7.48,1.35,1.35,0,0,1,.57-1.56c1.41-.87,1.35-2.1.93-3.46-.16-.5-.24-1-.41-1.52-.33-.93-.57-2-1.83-2s-1.3,1.24-1.51,2.18c-.12.39-.26.76-.75.81A14.53,14.53,0,0,1,92.92,151.09Z"/><path class="ah" d="M92.92,175.16a3.23,3.23,0,0,0,.4,2h-.41a28.4,28.4,0,0,1-6.45.14c-1.85,0-1-1.54-1.07-2.52L85,173.16c-.43-.79,0-1.12.71-1.29a1.15,1.15,0,0,1,.69.53c.38.77.24,1.93,1.43,2.13s1.69-.79,2.31-1.54c.21-.25.37-.53.6-.77.52-.57,1-1.45,1.88-1.09s.19,1.17.07,1.74C92.56,173.68,93.24,174.37,92.92,175.16Z"/><path class="ai" d="M117.8,177.2c-2,.64-4,.2-5.94.27a.73.73,0,0,1-.21-.49c1-1.09.2-3,1.82-3.79,1.3-.28,2.64,0,4-.31C119.75,173.88,119.87,175.29,117.8,177.2Z"/><path class="aj" d="M85.39,174.75c-.13,2.42,1.4,2.52,3.22,2.4,1.43-.1,2.87,0,4.3,0-1.38.84-2.89.29-4.33.36-1.87.1-3.74,0-5.62,0A5.53,5.53,0,0,0,85.39,174.75Z"/><path class="ak" d="M117.8,177.2c1.7-2.47,1.63-3.07-.42-4-1.83-.25-3.77.6-5.52-.51,1.82-1,3.74-.32,5.62-.33,2.11,1,2.4,1.88,1.46,4.36l-.77.58Z"/><path class="al" d="M101.61,177.52c-.69-.73-1.66-.16-2.56-.56a7.1,7.1,0,0,0,1.78-3.39l.45,0c.57,1.16.57,2.49,1.09,3.66Z"/><path class="am" d="M111.81,177.13c0,.11,0,.23,0,.34-3,0-6.11.45-9.15-.25l.25-.29C105.92,176.36,108.88,176.05,111.81,177.13Z"/><path class="am" d="M102.37,177.26c-1.3-.94-1.32-2.26-1.09-3.66l.68-.5c.38,1.3.33,2.7.87,4l-.12.15A1.37,1.37,0,0,0,102.37,177.26Z"/><path class="ac" d="M60.16,128.61H30.05c-3.17,0-3.55-.3-4.59-3.55,10.67,0,21.35,0,32,0,1.81,0,3.47-.07,3.73,2.32,0,.24.39.43.63.69C61.26,128.31,60.41,127.63,60.16,128.61Z"/><path class="an" d="M27.8,124.3c0-.15,0-.3,0-.45a17.35,17.35,0,0,0,5,.39c.47,0,.94-.1,1.1-.63s-.3-.65-.55-.93c-2.21-2.42-2.31-4-.46-6.71a12,12,0,0,1,2.64,2.17c1.28,1.49,3.18,2.26,4.47,3.76.16,1-1.55.83-1.17,1.65.49,1.07,1.7.67,2.63.68,1.88,0,3.75,0,5.63,0,1.85-.39,3.71-1.15,5.57,0,2.11-.16,4.23-1,6.33.07a2.13,2.13,0,0,1-1.5.29H29.3A2,2,0,0,1,27.8,124.3Z"/><path class="ao" d="M68.47,172.41l1.14-.45c2.25,0,4.5-.13,6.74,0h0c.17.37,1,.06.8.81-2.73.57-5.48.16-8.22.19C68.79,173,68.63,172.61,68.47,172.41Z"/><path class="ap" d="M77.16,172.79l-.8-.81c2.11.55,4.35-.15,6.46.71-1.69.82-3.52.3-5.26.53Z"/><path class="aq" d="M92.92,175.16c-1-1.16-1-2.43,0-3.94-1.68.48-2.1,1.69-2.74,2.57s-1.47,1.65-2.73,1.31c-1.42-.4-1.32-1.58-1.29-2.71-.24-.25.13-.46,0-.7a1,1,0,0,1-.43.31,1.2,1.2,0,0,0-.78,1.16,4.1,4.1,0,0,0-2.36-1.63c-1.83-.44-3.73.25-5.55-.37a15.14,15.14,0,0,1,1.05-2.73c.87-1.39,1.73-2.57-.63-3.38-.79-.28-1-1.25-.79-2.06.39-1.85-.18-3.86,1.19-5.59.51-.65-.36-1.71-.73-2.51-.61-1.29-.74-2.57.6-3.23s2.52,0,3.11,1.48c.22.54.48,1.05.73,1.59,1.34-1.49,3.36-1.26,5-2.06,0-.33.09-.65.14-1,.22-1.39.47-2.76,2.23-3,1.53-.23,2.74.59,3.55,2.39l.39,0a6.75,6.75,0,0,1,2,4.33c.21.1.33.51.35.48.16-.41.4-.84,0-1.27,0-1.27,0-2.56,1.76-2.76s2,1.14,2.45,2.27c.36,1,.49,2,.78,3,.21.69.18,1.61-.31,1.82-2.64,1.09-1.37,3.2-1,4.68.45,2-.44,3.49-.89,5.17.54,1-.08,1.89-.39,2.79C96.5,173.36,95.77,175.67,92.92,175.16Z"/><path class="ar" d="M77.13,171.16c1.84.28,3.74-.36,5.55.37-2.09.37-4.27-.45-6.33.46a21.76,21.76,0,0,1-6.74,0c0-.13,0-.25.08-.37,2-.18,4,.42,5.9-.36Z"/><path class="as" d="M125.25,159.76l-.36-.35c-1-1.27-2.06-2.48-2.17-4.19v-3.06a8.86,8.86,0,0,1,4.14-5.81h0a17.29,17.29,0,0,1,2.63-1c1.34.24,2.83-.55,4,.57l.44,0a4.78,4.78,0,0,1,3.16,2h0a8,8,0,0,1,2.33,4.81c.14.9-.09,1.81.05,2.71v.37c-.76.89-.82,2.15-1.6,3a5.78,5.78,0,0,1-1.59,1.49c-.53.23-.93.68-1.48.87-2.23,1.13-4.58.77-6.91.54a1.87,1.87,0,0,1-1.09-.43C126.2,160.89,126,160.09,125.25,159.76Z"/><path class="at" d="M125,92.26c-4.47,0-8.94,0-13.41,0-.63,0-1.66.38-1.63-.81s1.07-.74,1.68-.75q13.52,0,27,0c.57,0,1.48-.33,1.52.72,0,1.2-1,.86-1.58.86C134.1,92.28,129.56,92.27,125,92.26Z"/><path class="au" d="M124.1,115.15h16c.52,0,1.05,0,1.57,0a.52.52,0,0,1,.51.5c0,.4-.21.59-.58.62s-.79,0-1.18,0H107.86c-.39,0-.79,0-1.18,0a.72.72,0,0,1-.8-.7c0-.6.51-.47.87-.47,2.89,0,5.78,0,8.67,0Z"/><path class="av" d="M102.83,177.07c-1.4-1.08-1.37-2.48-.87-4l.36-.35c.81-.12,1.59-.74,2.45-.15,1.18.78,2.5.34,3.76.42a27.88,27.88,0,0,1,3.65.17,1.1,1.1,0,0,1,.88.42c-.33,1.2-.11,2.6-1.25,3.52Z"/><path class="aw" d="M124.21,129.41c4.73,0,9.46,0,14.19,0,.61,0,1.72-.47,1.72.61,0,.88-1,.54-1.62.54q-14.58,0-29.16,0c-.56,0-1.59.4-1.55-.58,0-.81,1-.59,1.65-.59Z"/><path class="ax" d="M134,95.83c-3.15,0-6.31,0-9.47,0-.57,0-1.32.13-1.38-.7-.08-1,.78-.86,1.4-.87q9.67,0,19.34,0c.59,0,1.47-.26,1.46.79s-.89.77-1.48.77C140.54,95.85,137.25,95.83,134,95.83Z"/><path class="ay" d="M137,110c-3.15,0-6.3,0-9.45,0-.61,0-1.46.22-1.45-.81s.92-.59,1.37-.6c6.49-.07,13-.09,19.47-.11.52,0,1.14,0,1.16.72,0,.89-.69.8-1.26.81C143.58,110,140.3,110,137,110Z"/><path class="az" d="M138,112c3.81,0,7.61,0,11.42,0,.51,0,1.38-.29,1.33.65,0,.72-.81.51-1.29.51q-11.42,0-22.82,0c-.6,0-1.57.22-1.53-.71,0-.78,1-.44,1.48-.45C130.43,112,134.24,112,138,112Z"/><path class="ba" d="M109.88,112c3.68,0,7.35,0,11,0,.5,0,1.38-.35,1.37.57,0,.64-.75.6-1.27.6H98.56c-.47,0-1.23.17-1.17-.63s.79-.53,1.27-.53C102.4,112,106.14,112,109.88,112Z"/><path class="bb" d="M110.07,108.72h10.79c.47,0,1,0,1.07.55s-.53.51-1,.49c-5.64-.23-11.27.1-16.9.25-1.17,0-2.34-.15-3.51-.18-.38,0-.68-.08-.72-.46s.33-.52.65-.57a15.48,15.48,0,0,1,2.13-.26c2.5,0,5,0,7.49,0Z"/><path class="bc" d="M136.42,127.46h-10c-.54,0-1.35.42-1.39-.51s.93-.69,1.5-.69c5,0,10.11,0,15.17,0,1.57,0,3.15,0,4.72,0,.61,0,1.57-.2,1.56.7s-1,.47-1.46.47c-3.35,0-6.7,0-10.05,0Z"/><path class="bd" d="M101.68,127.44c0-.4,0-.79,0-1.18l.75,0a79,79,0,0,1,10-.17,75.68,75.68,0,0,1,9.76.17c.87,1.57-.44,1.2-1.13,1.2-4.77,0-9.53.09-14.29,0C105,127.38,103.35,128,101.68,127.44Z"/><path class="be" d="M113.7,94.26c2.11,0,4.21,0,6.31,0,.59,0,1.26-.06,1.22.85s-.63.72-1.15.72c-4.27,0-8.54,0-12.82,0-.6,0-1.27,0-1.22-.87s.82-.68,1.35-.69C109.49,94.24,111.6,94.26,113.7,94.26Z"/><path class="bf" d="M135.79,124.28c-2.83,0-5.65,0-8.48,0-.47,0-1.2.16-1.12-.67.06-.62.68-.5,1.11-.5h17.35c.45,0,1,0,1,.59s-.58.6-1,.6C141.71,124.29,138.75,124.28,135.79,124.28Z"/><path class="bg" d="M102.43,123.08H122.1c.6,1.45-.41,1.54-1.38,1.55-3.15.05-6.3,0-9.45,0-2.49,0-5,0-7.48,0C102.82,124.62,101.81,124.53,102.43,123.08Z"/><path class="bh" d="M138.06,141.23c-1.44,0-2.89,0-4.33,0-.53,0-1.15,0-1.19-.72s.54-.82,1.09-.83q4.32,0,8.64,0c.56,0,1.1.21,1.09.88s-.68.66-1.18.66c-1.37,0-2.75,0-4.12,0Z"/><path class="bi" d="M102.43,123.08c-.17,1,.39,1.21,1.26,1.21q8.57,0,17.13,0c.86,0,1.43-.19,1.28-1.2,1,1.8-.17,2-1.51,2H105.48c-.66,0-1.31,0-2,0C101.62,125.23,101.81,124.28,102.43,123.08Z"/><path class="bj" d="M128.83,141.21l-8.25,0c-.63,0-1.48.09-1.44-.86,0-.78.82-.74,1.39-.71,3,.18,6.12-.43,9.13.35A2.89,2.89,0,0,1,128.83,141.21Z"/><path class="am" d="M104.39,172.82c-.68-.41-1.39.2-2.07-.07a2.35,2.35,0,0,1,1.76-.71q6.26,0,12.5,0a3.18,3.18,0,0,1,.9.3c-1.85.31-3.79-.34-5.61.43l-.27.25C109.19,173.19,106.78,173.49,104.39,172.82Z"/><path class="bi" d="M122.12,126.23H102.39c.39-.49.94-.39,1.45-.39q8.41,0,16.84,0C121.19,125.84,121.74,125.74,122.12,126.23Z"/><path class="bk" d="M139.09,157.39c1.48.7.17,1.44-.08,2s-.63,1.51-1.67,1.21c-.11,0-.17-.3-.25-.46-.19-.73.67-1,.73-1.62C138.33,158.25,138.26,157.33,139.09,157.39Z"/><path class="bl" d="M126.86,146.35a13.49,13.49,0,0,0-4,5.53c-.12.18-.25.17-.37,0C123.2,149.43,124.21,147.24,126.86,146.35Z"/><path class="bm" d="M127.59,161.32a11.8,11.8,0,0,0,7.56-.4c.11.09.15.19.11.28s-.09.13-.13.13c-2.11,1.21-4.42.76-6.67.79C128.21,161.82,127.45,162.06,127.59,161.32Z"/><path class="bn" d="M122.91,155.43l2,4c-1.35-1-2.39-2.17-2.35-4C122.66,155.25,122.78,155.24,122.91,155.43Z"/><path class="bo" d="M139.1,152.66c0-1.85-1.21-3.2-2-4.74,1.7.94,2.24,2.53,2.42,4.32C139.65,152.65,139.47,152.75,139.1,152.66Z"/><path class="bp" d="M127.59,161.32l.87.8c-1.41.35-2.69.44-2.79-1.56.54-.24.84.23,1.24.4Z"/><path class="bq" d="M139.1,152.66l.43-.42a3.34,3.34,0,0,1,0,3.2C138.72,154.61,139.24,153.59,139.1,152.66Z"/><path class="br" d="M137.12,147.93,134,146C135.61,145.66,136.53,146.54,137.12,147.93Z"/><path class="bs" d="M133.52,145.94c-1.38-.7-2.86-.25-4.3-.37-.13-.09-.17-.17-.13-.25s.1-.12.14-.12c1,0,2,0,3,0C132.83,145.17,133.48,145.08,133.52,145.94Z"/><path class="bt" d="M139.09,157.39c-.49.3-.54,1-1.18,1.19-.12.2-.23.19-.35,0,.73-.87.87-2.14,1.93-2.78C139.35,156.34,139.22,156.87,139.09,157.39Z"/><path class="bu" d="M128.83,141.21c0-.61,0-1.15.83-1.19C130.46,141.16,129.72,141.24,128.83,141.21Z"/><path class="bv" d="M122.91,155.43h-.37c0-1.18,0-2.36,0-3.54h.38Z"/><path class="bw" d="M137.56,158.59h.35c.05.69-.58,1-.82,1.57l-.76.37c-.11-.08-.15-.16-.12-.25s.06-.14.09-.14Z"/><path class="bx" d="M129.23,145.2c0,.12,0,.24,0,.37a4.46,4.46,0,0,1-2.37.78A3.92,3.92,0,0,1,129.23,145.2Z"/><path class="by" d="M136.3,160.13a2.56,2.56,0,0,1,0,.39c-.26.48-.76.6-1.2.81,0-.14,0-.27,0-.41A1.29,1.29,0,0,1,136.3,160.13Z"/><path class="bz" d="M126.91,161l-1.24-.4-.42-.8A2.07,2.07,0,0,1,126.91,161Z"/><path class="ca" d="M52.71,124.22H47.14c1-.42,1.18-.85.3-1.71A5.81,5.81,0,0,1,46,117.68c0-.54.24-.86.78-.92a2.42,2.42,0,0,0,1.94,1.17c2,1.11,4.49,1.25,6.35,2.77.14,1.09-.58,1.68-1.33,2.22C53.23,123.26,52.66,123.49,52.71,124.22Z"/><path class="cb" d="M55,120.7a43.12,43.12,0,0,1-6.71-2.37c-1-2.14-.54-3,1.7-3.27a5.08,5.08,0,0,1,2.65.12C54.94,116.24,55.73,118.09,55,120.7Z"/><path class="cc" d="M35.31,118.34c-.84-.74-1.91-1.25-2.37-2.37l1.19-.79c2.1-.41,4.1-.57,5.54,1.57.34.51.78.9.52,1.54a1.36,1.36,0,0,1-1.46.8A7.12,7.12,0,0,1,35.31,118.34Z"/><path class="cd" d="M35.31,118.34c1.1.08,2.23-.19,3.31.25a.91.91,0,0,0,1.3-.53c.23-.57-.47-.69-.61-1-1.12-2.43-3.25-1.86-5.18-1.9,2.46-.92,4.16-.57,5.7,1.17,1.35,1.53,1.42,3.19.22,5.55A12,12,0,0,1,35.31,118.34Z"/><path class="ce" d="M52.68,115.18c-.39,0-.78,0-1.17,0-3,.07-3.18.23-3.18,3.15-.61-.43-2.3.21-1.58-1.57C48.46,114.63,50,114.21,52.68,115.18Z"/><path class="cf" d="M92.53,151.07a6.12,6.12,0,0,0-1.88-1.63c-1.71-.93-3.08-.19-3.25,1.74-.05.61.18,1.37-.79,1.49-1.92-.85-.84-2.61-.87-3.78-.16-6.1,0-12.2.08-18.31,1.63,0,3.27,0,4.9,0,1.38-.06,1.9.55,1.81,1.87-.2,3.25-.23,6.55-.17,9.76C92.41,145.13,91.88,148.13,92.53,151.07Z"/><path class="cg" d="M69.25,166.07c0-.26.43-.52,0-.78l.39-.39C70.29,165.55,70.1,165.92,69.25,166.07Z"/><path class="ch" d="M95.3,154.63a4.52,4.52,0,0,1,.38.84,3.28,3.28,0,0,1,.15,1.27c0,.25-.42.09-.65,0-.77-.3-.22-.87-.27-1.31A.85.85,0,0,0,95.3,154.63Z"/><path class="ci" d="M97.67,171.62l.39-2.79C99.07,169.92,98.5,170.79,97.67,171.62Z"/><path class="cj" d="M85.82,172c.36-.54.4-1.38,1.35-1.44.21,1-.8,1.17-1,1.83Z"/><path class="ck" d="M113.06,173.61l-.82-.05c-.2-.2-.58-.31-.38-.73v-.07c1.83.23,3.73-.39,5.51.41C116,174.05,114.49,173.35,113.06,173.61Z"/><path class="cl" d="M82.42,168.86c.75-1.45,2.24-2,3.45-2.94C85.26,167.52,83.66,168,82.42,168.86Z"/><path class="cm" d="M94.26,162.37c.6.11.63.59.62,1s.17.89-.49.77c-.44-.08-.93-.28-.94-.83S93.82,162.56,94.26,162.37Z"/><path class="cn" d="M82.94,157.23c-.09,1.65-1.07,2.21-1.8,3.31C81.2,159,82.23,158.5,82.94,157.23Z"/><path class="co" d="M90.34,160.35c-.26-.7,0-1.06.55-1.22.08,0,.29.08.3.15C91.25,159.9,90.81,160.1,90.34,160.35Z"/><path class="cp" d="M85.87,162.22a.5.5,0,0,1-.31-.62c.06-.15.29-.37.39-.35.31.07.26.38.25.62S86.14,162.26,85.87,162.22Z"/><path class="cq" d="M96.66,159.72c-.28,0-.5-.16-.44-.46s.23-.27.35-.41a2.63,2.63,0,0,1,.42.54C97.09,159.64,96.86,159.7,96.66,159.72Z"/><path class="cr" d="M87.53,157.06c-.11.19-.12.53-.46.44a.45.45,0,0,1-.2-.41.65.65,0,0,1,.39-.35C87.48,156.67,87.61,156.8,87.53,157.06Z"/><path class="cs" d="M125.27,156.23a3.41,3.41,0,0,0,.15-2.74c-.61-1.38.74-3.56,2.31-4.76.37-.28,1.62,0,1.1-1.14a2,2,0,0,1,1.62-.64c.59,0,1.19,0,1.78,0,1.57.55,3.15,1.09,4.16,2.55l.32.32a18.39,18.39,0,0,0,1,2.23c0,1,0,2.07,0,3.1a7.22,7.22,0,0,1-5.44,5.16c-.81,0-1.62,0-2.42,0a7.79,7.79,0,0,1-3.38-1.82l-.31-.32C125.82,157.56,124.81,157.21,125.27,156.23Z"/><path class="ct" d="M132.38,160.16a8.67,8.67,0,0,0,5.12-4.74c.11-.17.22-.19.35,0-.71,2.91-2.75,4.39-5.48,5.14-.13-.09-.17-.17-.13-.25S132.34,160.16,132.38,160.16Z"/><path class="cu" d="M136.39,149.52a21.26,21.26,0,0,0-4-2.37c-.14-.09-.18-.17-.14-.26s.09-.14.14-.14C134,147.34,135.74,147.61,136.39,149.52Z"/><path class="cv" d="M130.41,147.14l-1.58.45-2,1a4.24,4.24,0,0,1,3.58-1.88c.13.09.17.18.13.26S130.45,147.14,130.41,147.14Z"/><path class="cw" d="M126.45,158.52l3.17,1.63c.14.09.18.17.14.26s-.09.13-.13.13C128.37,160.18,127.08,159.86,126.45,158.52Z"/><path class="cx" d="M124.5,152.27a10.32,10.32,0,0,0,.35,3.54c-.11.2-.23.2-.34,0-.68-1.12-.36-2.34-.36-3.54C124.26,152.12,124.38,152.11,124.5,152.27Z"/><path class="cy" d="M124.5,152.27h-.35c.38-.85.41-1.88,1.46-2.73A7.51,7.51,0,0,1,124.5,152.27Z"/><path class="cz" d="M137.85,155.4l-.35,0c0-1.18,0-2.36,0-3.54.13-.16.26-.16.37,0C137.86,153.06,137.85,154.23,137.85,155.4Z"/><path class="da" d="M124.51,155.81h.34l.42.42.87,2A2.79,2.79,0,0,1,124.51,155.81Z"/><path class="db" d="M129.63,160.54c0-.13,0-.26,0-.39h2.76c0,.13,0,.26,0,.38Z"/><path class="dc" d="M137.86,151.89h-.37a2.48,2.48,0,0,1-.78-2A5.28,5.28,0,0,1,137.86,151.89Z"/><path class="dd" d="M130.41,147.14v-.39h2v.4Z"/><path class="de" d="M111.86,172.83l.38.73c-2.1,0-4.2,0-6.31,0-.6,0-1.39.24-1.54-.75Z"/><path class="df" d="M128.44,154.64c-1.86-1.46-.7.82-1.34,1-.74-1.42.34-2.45.94-3.42.43-.7,1.13,0,1.6.41C129.59,153.54,128.88,154,128.44,154.64Z"/><path class="dg" d="M128.44,154.64c-.3-1.08.45-1.53,1.2-2H130a1.61,1.61,0,0,1-.19,2.23c-.51.56-1,.31-1.39-.26Z"/><path class="dh" d="M128.43,154.63c2.4.84,1.29-1.12,1.58-2,.82,0,.8.61.81,1.17,0,.23-.27.28-.41.43C129.7,155.71,129.34,155.78,128.43,154.63Z"/><path class="di" d="M130.41,154.26l.41-.43a1.3,1.3,0,0,0,.75-1.55c.5-.16,1.08-.59,1.21.39C132.21,153.53,131.61,154.34,130.41,154.26Z"/><path class="dj" d="M132.78,152.67c-.29-.48-.76-.39-1.21-.39.15-.89,1.88,0,1.45-1.64A1.59,1.59,0,0,1,132.78,152.67Z"/><path class="dk" d="M130.77,156.53l-2.19.5A1.63,1.63,0,0,1,130.77,156.53Z"/><rect class="dl" width="201.76" height="202.04"/></svg>