<svg xmlns="http://www.w3.org/2000/svg" viewBox="0 0 201.76 202.04"><rect width="201.76" height="202.04" fill="none"/><path d="M101,84.78a2.94,2.94,0,1,0-5,3.13c.87,1.37,1-.25,2.34-1.12S101.84,86.15,101,84.78Z" fill="#fff"/><path d="M123.24,78.56a26.57,26.57,0,0,0-4.85-3.87c-4.07-2.47-8.31-3.09-20.54-4,0,0-14.39-1-20.67,1.51a8.74,8.74,0,0,0-3.55,2.62,7.13,7.13,0,0,0-.77,1.38c-1,2.48-.36,5.71-.33,16,0,5.84-.06,8.75-.09,10.59a59.76,59.76,0,0,0,.09,8.66c0,.59.11,1.21.19,1.86a74.45,74.45,0,0,0,1.53,8.93c.23,1,.5,2.1.8,3.2v0c.59,2.15,1.3,4.42,2.16,6.8.09-7.87,2.42-12,4.64-14.26l.51-.54c1.67-1.79,6.93-7.59,6.82-9.77a2,2,0,0,1,.22-1A2,2,0,0,1,90,106a10.52,10.52,0,0,0,3.15-3.73,16.57,16.57,0,0,0,.28-14.07h-.21c-.15,1.11-.27,2.23-.46,3.34a17.39,17.39,0,0,1-2.16,6.62c-1.16,1.82-2.59,2.28-4.52,1.37a17.45,17.45,0,0,1-9.78-11.53c-.93-3.31.08-5.88,2.83-7.94a13.41,13.41,0,0,1,3.57-1.88A28.29,28.29,0,0,1,94.46,77a23.92,23.92,0,0,1,7.31,1.63,4.2,4.2,0,0,1,2.74,2.9,6.74,6.74,0,0,0,6.07,4.69c1.14.09,2.27.08,3.4.13a47.35,47.35,0,0,1,5,.42,1.77,1.77,0,0,1,1.66,1.86,4.81,4.81,0,0,1-.1,1.36c-.4,1.71-.87,3.41-1.18,5.14a12.91,12.91,0,0,1-5.49,8.64,1.91,1.91,0,0,1-.37.06,9,9,0,0,1-1.72,0,8.47,8.47,0,0,1-2.87-.88,15.46,15.46,0,0,0,3.65,1.53l.12.06a.37.37,0,0,0,.14.07l-.18,0a15.82,15.82,0,0,1-10.5,1.65,2.15,2.15,0,0,0-2.76,2.37,9.34,9.34,0,0,0,1.3,4.32,5.77,5.77,0,0,0,4.5,3.13,14.64,14.64,0,0,0,5.32-.16c5.27-1.1,9.94-3.35,13.35-7.63a23.91,23.91,0,0,0,5.29-13.53C130,81.88,124.33,79.7,123.24,78.56Z" fill="#fff"/></svg>